<?xml version="1.0" encoding="UTF-8"?>
<svg
    xmlns="http://www.w3.org/2000/svg"
    xmlns:xlink="http://www.w3.org/1999/xlink"
    viewBox="0 0 1639.58 1652.72">
    <defs>
        <style>


        	.cls-6, .cls-1 {
        		animation: twinkle 2s linear infinite forwards alternate;
        	}

        	.cls-6.opacity01, .cls-1.opacity04 {
			    animation-delay: 0.7s;
			    opacity:0;
			}
			.cls-6.opacity02 .cls-1.opacity03 {
			    animation-delay: 0.5s;
			    opacity:0;
			}
			.cls-6.opacity03 .cls-1.opacity02 {
			    animation-delay: 0.2s;
			    opacity:0;
			}
			.cls-6.opacity04 .cls-1.opacity01 {
			    animation-delay: 0.4s;
			    opacity:0;
			}

        	@keyframes twinkle {
				  0% {
				    opacity: 0;
				}
				50% {
				    opacity: 1;
				}
				100% {
					opacity:0;
				}
			}


            .cls-4, .cls-5 {
                stroke-dasharray: 500;
                stroke-dashoffset: 500;
                animation: ani 5s linear infinite;
            }


            @keyframes ani {
              0% {
                stroke-dashoffset: 500; 
              }
              50% {
                stroke-dashoffset: 0;  
              }
              100% {
                stroke-dashoffset: -500;
              }
            }




            .cls-1 {
                fill: #75e3fe;
            }
            .cls-2 {
                isolation: isolate;
            }
            .cls-3 {
                stroke: #34658d;
            }
            .cls-3,
            .cls-4 {
                stroke-width: 0.5px;
            }
            .cls-3,
            .cls-4,
            .cls-5 {
                fill: none;
                stroke-miterlimit: 10;
            }
            .cls-6 {
                fill: #34658d;
            }
            .cls-4 {
                stroke: #75e3fe;
            }
            .cls-7 {
                opacity: 0.4;
            }
            .cls-8 {
                mix-blend-mode: color-dodge;
            }
            .cls-9 {
                fill: #558caf;
            }
            .cls-5 {
                stroke: #558caf;
                stroke-width: 2px;
            }
        </style>
    </defs>
    <g class="cls-2">
        <g id="Isolation_Mode">
            <g class="cls-8">
                <g>
                    <g>
                        <g><path
                            class="cls-4"
                            d="M593.28,1580.16l-24.18-46.59-95.96,4.44-72.53-87.64-137.24-54.36-37.94-110.93-128.09-111.05c-52.99-105.49-82.8-224.5-82.8-350.44C14.55,389.81,368.24,38.17,804.54,38.17c202.55,0,387.3,75.79,527.12,200.4,37.03,33.01,70.91,69.44,101.14,108.79l14.44,119.01"/><polyline
                            class="cls-4"
                            points="1322.27 1378.26 1405.96 1326.12 1226.31 1389.35 1166.06 1521.36 992 1550.58 935.46 1597.91 703.37 1565.37 593.28 1580.16"/><polygon
                            class="cls-4"
                            points="1226.31 1389.35 1314.44 1423.51 1322.27 1378.26 1238.12 1480.24 1226.31 1389.35"/><polygon
                            class="cls-4"
                            points="930.63 49.26 734.24 42.61 569.85 74.41 930.63 49.26"/><polyline
                            class="cls-4"
                            points="1447.24 466.38 1337.89 243.4 1190.61 186.82 1161.6 124.7 932.86 125.81 930.63 49.26 734.24 115.82 575.8 75.52 1088.33 93.64 932.86 125.81 734.24 42.61 581.38 102.51 480.96 106.95 474.26 322.16 314.7 209.01"/><path
                            class="cls-4"
                            d="M400.62,1450.37s112.7,15.53,120.51,21.08l47.98,62.12-168.49-83.2-175.18-165.29-40.17-98.73L34.64,998.86s92.61-168.62,93.73-171.95c1.12-3.33-37.94-170.84-37.94-170.84l75.87-136.45v-158.64l148.4-151.98,255.15-134.6"/><polyline
                            class="cls-4"
                            points="703.37 1565.37 992 1550.58 1226.31 1389.35 1520.89 1153.06 1322.27 1378.26 1226.31 1389.35 1257.56 1435.94"/><polyline
                            class="cls-4"
                            points="1322.27 1378.26 992 1550.58 1257.56 1435.94 935.52 1598.26 573.57 1534.95 755.44 1608.26 992 1550.58 860.33 1475.88 593.28 1580.16"/><polyline
                            class="cls-4"
                            points="127.25 951.16 213.91 984.07 128.36 826.91 219.86 714.87"/><polyline
                            class="cls-4"
                            points="329.95 1129.03 263.38 1396.01 213.91 984.07 88.94 1066.9 329.95 1129.03 185.27 1186.34"/><polygon
                            class="cls-4"
                            points="396.16 415.35 474.26 322.16 249.99 337.69 396.16 415.35"/><polyline
                            class="cls-4"
                            points="166.3 360.99 396.16 415.35 166.3 519.62 219.86 714.87 90.43 656.07"/><polygon
                            class="cls-4"
                            points="1386.25 692.68 1447.24 466.38 1311.11 601.72 1386.25 692.68"/><polyline
                            class="cls-4"
                            points="1448.73 805.1 1378.06 985.55 1520.89 1153.06 1542.09 542.92"/><polyline class="cls-4" points="1311.11 601.72 1320.04 437.53 1447.24 466.38"/><polyline
                            class="cls-4"
                            points="1337.89 243.4 1320.04 437.53 1190.61 186.82 932.86 125.81 813.47 213.45 734.24 115.82 249.99 337.69"/><polyline
                            class="cls-4"
                            points="813.47 213.45 1190.61 186.82 1125.89 335.47 1462.61 388.89"/><path
                            class="cls-4"
                            d="M1226.31,1389.35l-13.39-122.03,262.21-367.19-26.41-95.03s154.72-38.46,143.57-36.98c-11.16,1.48-206.05-75.44-206.05-75.44l125.71-44.37-64.72-181.93,145.05,301.74"/><path
                            class="cls-4"
                            d="M1212.92,1267.32l228.37-65.82,151.01-433.38-71.41,384.94-114.93,173.06,35.33-124.62,79.59-48.44-45.75-252.93,117.16-132.01-80.34-119.81,30.13-105.39-94.84-76.54,15.36-77.48c83.35,124.47,131.92,273.94,131.92,434.69,0,240.56-108.78,455.85-280.09,599.93l-56.88,12.43-19.43,44.29c-89.78,58.72-192.33,99.72-302.6,118.02-42.6,7.07-86.36,10.75-130.98,10.75-277.29,0-521.22-142.04-662.18-356.93l42.91-65.73-113.81-68.78,55.79-166.4L16.78,775.88l73.64-119.81,75.87-295.09,83.69-23.3,64.72-128.68,266.68-106.5,152.87,13.31,354.08-22.19"/><line class="cls-4" x1="451.95" y1="1329.45" x2="185.27" y2="1186.34"/><polyline
                            class="cls-4"
                            points="1166.06 1521.36 860.33 1475.88 755.44 1608.26 521.13 1471.44"/><polyline
                            class="cls-4"
                            points="34.64 998.86 90.43 656.07 71.46 1117.56 263.38 1396.01 451.95 1329.45 521.13 1471.44 860.33 1475.88 1226.31 1380.48 1441.29 1201.5"/><polyline class="cls-4" points="1448.73 805.1 1441.29 1201.5 1378.06 985.55"/><polygon
                            class="cls-4"
                            points="1203.25 476.73 1143.74 461.94 1215.16 417.57 1203.25 476.73"/><polygon
                            class="cls-4"
                            points="1099.11 390.94 1030.68 325.86 1030.68 379.11 1099.11 390.94"/><polygon
                            class="cls-4"
                            points="626.01 1417.45 765.86 1384.91 545.67 1352.37 626.01 1417.45"/><polyline class="cls-4" points="765.86 1384.91 649.81 1316.87 626.01 1417.45"/><polygon
                            class="cls-4"
                            points="209.44 846.51 277.88 828.76 224.32 825.8 209.44 846.51"/><polygon
                            class="cls-4"
                            points="1087.21 1340.54 1176.47 1216.29 1090.19 1284.33 1087.21 1340.54"/><polygon
                            class="cls-4"
                            points="554.6 387.98 649.81 290.36 554.6 322.9 596.26 393.9 554.6 387.98"/><polygon
                            class="cls-4"
                            points="1322.27 979.63 1328.22 1062.46 1289.54 1032.88 1322.27 979.63"/><polygon
                            class="cls-4"
                            points="227.3 535.9 343.34 500.4 292.76 550.69 254.08 503.35 227.3 535.9"/></g>
                        <g><path
                            class="cls-1 opacity01"
                            d="M1305.91,601.72c0-2.86,2.33-5.18,5.21-5.18s5.21,2.32,5.21,5.18-2.33,5.18-5.21,5.18-5.21-2.32-5.21-5.18Z"/><path
                            class="cls-1 opacity01"
                            d="M1321.53,367.64c0-2.86,2.33-5.18,5.21-5.18s5.21,2.32,5.21,5.18-2.33,5.18-5.21,5.18-5.21-2.32-5.21-5.18Z"/><path
                            class="cls-1 opacity02"
                            d="M1379.18,692.68c0-3.68,3-6.66,6.7-6.66s6.69,2.98,6.69,6.66-3,6.66-6.69,6.66-6.7-2.98-6.7-6.66Z"/><path
                            class="cls-1 opacity03"
                            d="M926.16,125.81c0-3.68,3-6.66,6.7-6.66s6.7,2.98,6.7,6.66-3,6.66-6.7,6.66-6.7-2.98-6.7-6.66Z"/><path
                            class="cls-1 opacity04"
                            d="M563.15,74.41c0-3.68,3-6.66,6.69-6.66s6.7,2.98,6.7,6.66-3,6.66-6.7,6.66-6.69-2.98-6.69-6.66Z"/><path
                            class="cls-1 opacity02"
                            d="M389.46,414.24c0-3.68,3-6.66,6.7-6.66s6.69,2.98,6.69,6.66-3,6.66-6.69,6.66-6.7-2.98-6.7-6.66Z"/><path
                            class="cls-1 opacity02"
                            d="M213.16,714.87c0-3.68,3-6.66,6.69-6.66s6.69,2.98,6.69,6.66-3,6.66-6.69,6.66-6.69-2.98-6.69-6.66Z"/><path
                            class="cls-1 opacity01"
                            d="M655.1,720.78c0-3.68,3-6.66,6.7-6.66s6.69,2.98,6.69,6.66-3,6.66-6.69,6.66-6.7-2.98-6.7-6.66Z"/><path
                            class="cls-1 opacity04"
                            d="M915.36,867.42c0-3.68,3-6.66,6.69-6.66s6.7,2.98,6.7,6.66-3,6.66-6.7,6.66-6.69-2.98-6.69-6.66Z"/><path
                            class="cls-1 opacity03"
                            d="M82.24,1066.9c0-3.68,3-6.66,6.69-6.66s6.7,2.98,6.7,6.66-3,6.66-6.7,6.66-6.69-2.98-6.69-6.66Z"/><ellipse class="cls-1" cx="263.38" cy="1395.27" rx="6.7" ry="6.66"/><path
                            class="cls-1 opacity04"
                            d="M139.52,1387.13c0-3.68,3-6.66,6.69-6.66s6.69,2.98,6.69,6.66-3,6.66-6.69,6.66-6.69-2.98-6.69-6.66Z"/><path
                            class="cls-1 opacity04"
                            d="M515.55,1471.07c0-3.68,3-6.66,6.7-6.66s6.7,2.98,6.7,6.66-3,6.66-6.7,6.66-6.7-2.98-6.7-6.66Z"/><path
                            class="cls-1 opacity04"
                            d="M619.32,1416.35c0-3.68,3-6.66,6.69-6.66s6.69,2.98,6.69,6.66-3,6.66-6.69,6.66-6.69-2.98-6.69-6.66Z"/><path
                            class="cls-1 opacity01"
                            d="M759.54,1384.91c0-3.68,3-6.66,6.69-6.66s6.69,2.98,6.69,6.66-3,6.66-6.69,6.66-6.69-2.98-6.69-6.66Z"/><path
                            class="cls-1 opacity01"
                            d="M644.24,1317.98c0-3.68,3-6.66,6.69-6.66s6.7,2.98,6.7,6.66-3,6.66-6.7,6.66-6.69-2.98-6.69-6.66Z"/><path
                            class="cls-1 opacity02"
                            d="M538.24,1352c0-3.68,3-6.66,6.69-6.66s6.69,2.98,6.69,6.66-3,6.66-6.69,6.66-6.69-2.98-6.69-6.66Z"/><path
                            class="cls-1 opacity03"
                            d="M855.12,1473.66c0-3.68,3-6.66,6.7-6.66s6.69,2.98,6.69,6.66-3,6.66-6.69,6.66-6.7-2.98-6.7-6.66Z"/><path
                            class="cls-1 opacity04"
                            d="M833.55,1655.59c0-3.68,3-6.66,6.7-6.66s6.69,2.98,6.69,6.66-3,6.66-6.69,6.66-6.7-2.98-6.7-6.66Z"/><path
                            class="cls-1 opacity04"
                            d="M309.12,210.12c0-3.68,3-6.66,6.7-6.66s6.69,2.98,6.69,6.66-3,6.66-6.69,6.66-6.7-2.98-6.7-6.66Z"/><path
                            class="cls-1 opacity04"
                            d="M1585.04,768.67c0-3.68,3-6.66,6.7-6.66s6.69,2.98,6.69,6.66-3,6.66-6.69,6.66-6.7-2.98-6.7-6.66Z"/><path
                            class="cls-1 opacity01"
                            d="M1371.93,986.1c0-3.68,3-6.66,6.7-6.66s6.69,2.98,6.69,6.66-3,6.66-6.69,6.66-6.7-2.98-6.7-6.66Z"/><path
                            class="cls-1 opacity01"
                            d="M1199.09,898.94c0-3.68,3-6.66,6.7-6.66s6.69,2.98,6.69,6.66-3,6.66-6.69,6.66-6.7-2.98-6.7-6.66Z"/><path
                            class="cls-1 opacity04"
                            d="M962.71,1170.42c0-3.68,3-6.66,6.69-6.66s6.7,2.98,6.7,6.66-3,6.66-6.7,6.66-6.69-2.98-6.69-6.66Z"/><path
                            class="cls-1 opacity04"
                            d="M1522,950.05c0-3.68,3-6.66,6.69-6.66s6.69,2.98,6.69,6.66-3,6.66-6.69,6.66-6.69-2.98-6.69-6.66Z"/><path
                            class="cls-1 opacity03"
                            d="M1500.8,1234.04c0-3.68,3-6.66,6.69-6.66s6.7,2.98,6.7,6.66-3,6.66-6.7,6.66-6.69-2.98-6.69-6.66Z"/><path
                            class="cls-1 opacity01"
                            d="M1171.64,1215.18c0-3.68,3-6.66,6.69-6.66s6.69,2.98,6.69,6.66-3,6.66-6.69,6.66-6.69-2.98-6.69-6.66Z"/><path
                            class="cls-1 opacity02"
                            d="M500.08,1088.41c0-3.68,3-6.66,6.69-6.66s6.7,2.98,6.7,6.66-3,6.66-6.7,6.66-6.69-2.98-6.69-6.66Z"/><path
                            class="cls-1 opacity04"
                            d="M1434.41,1202.43c0-3.68,3-6.66,6.69-6.66s6.7,2.98,6.7,6.66-3,6.66-6.7,6.66-6.69-2.98-6.69-6.66Z"/><path
                            class="cls-1 opacity02"
                            d="M1221.85,1391.57c0-3.68,3-6.66,6.69-6.66s6.7,2.98,6.7,6.66-3,6.66-6.7,6.66-6.69-2.98-6.69-6.66Z"/><path
                            class="cls-1 opacity01"
                            d="M1536.88,542.92c0-2.86,2.33-5.18,5.21-5.18s5.21,2.32,5.21,5.18-2.33,5.18-5.21,5.18-5.21-2.32-5.21-5.18Z"/><path
                            class="cls-1 opacity04"
                            d="M1593.79,605.41c0-2.86,2.33-5.18,5.21-5.18s5.21,2.32,5.21,5.18-2.33,5.18-5.21,5.18-5.21-2.32-5.21-5.18Z"/><path
                            class="cls-1 opacity01"
                            d="M1506.75,648.31c0-2.86,2.33-5.18,5.21-5.18s5.21,2.32,5.21,5.18-2.33,5.18-5.21,5.18-5.21-2.32-5.21-5.18Z"/><path
                            class="cls-1 opacity03"
                            d="M1443.71,806.39c0-2.86,2.33-5.18,5.21-5.18s5.21,2.32,5.21,5.18-2.33,5.18-5.21,5.18-5.21-2.32-5.21-5.18Z"/><path
                            class="cls-1 opacity04"
                            d="M1317.07,977.78c0-2.86,2.33-5.18,5.21-5.18s5.21,2.32,5.21,5.18-2.33,5.18-5.21,5.18-5.21-2.32-5.21-5.18Z"/><ellipse class="cls-1 opacity04" cx="1138.94" cy="749.77" rx="5.21" ry="5.18"/><path
                            class="cls-1 opacity04"
                            d="M801.65,760.37c0-2.86,2.33-5.18,5.21-5.18s5.21,2.32,5.21,5.18-2.33,5.18-5.21,5.18-5.21-2.32-5.21-5.18Z"/><path
                            class="cls-1 opacity01"
                            d="M666.54,933.58c0-2.86,2.33-5.18,5.21-5.18s5.21,2.32,5.21,5.18-2.33,5.18-5.21,5.18-5.21-2.32-5.21-5.18Z"/><path
                            class="cls-1 opacity02"
                            d="M870.63,1043.16c0-2.86,2.33-5.18,5.21-5.18s5.21,2.32,5.21,5.18-2.33,5.18-5.21,5.18-5.21-2.32-5.21-5.18Z"/><path
                            class="cls-1 opacity04"
                            d="M697.12,1154.16c0-2.86,2.33-5.18,5.21-5.18s5.21,2.32,5.21,5.18-2.33,5.18-5.21,5.18-5.21-2.32-5.21-5.18Z"/><path
                            class="cls-1 opacity01"
                            d="M948.85,628.17c0-2.86,2.33-5.18,5.21-5.18s5.21,2.32,5.21,5.18-2.33,5.18-5.21,5.18-5.21-2.32-5.21-5.18Z"/><path
                            class="cls-1 opacity04"
                            d="M841.47,479.7c0-2.86,2.33-5.18,5.21-5.18s5.21,2.32,5.21,5.18-2.33,5.18-5.21,5.18-5.21-2.32-5.21-5.18Z"/><path
                            class="cls-1 opacity04"
                            d="M1440.92,938.96c0-2.86,2.33-5.18,5.21-5.18s5.21,2.32,5.21,5.18-2.33,5.18-5.21,5.18-5.21-2.32-5.21-5.18Z"/><path
                            class="cls-1 opacity03"
                            d="M1323.02,1062.46c0-2.86,2.33-5.18,5.21-5.18s5.21,2.32,5.21,5.18-2.33,5.18-5.21,5.18-5.21-2.32-5.21-5.18Z"/><path
                            class="cls-1 opacity01"
                            d="M1284.89,1032.7c0-2.86,2.33-5.18,5.21-5.18s5.21,2.32,5.21,5.18-2.33,5.18-5.21,5.18-5.21-2.32-5.21-5.18Z"/><path
                            class="cls-1 opacity04"
                            d="M1085.72,1284.52c0-2.86,2.33-5.18,5.21-5.18s5.21,2.32,5.21,5.18-2.33,5.18-5.21,5.18-5.21-2.32-5.21-5.18Z"/><path
                            class="cls-1 opacity01"
                            d="M1054.09,1019.83c0-2.86,2.33-5.18,5.21-5.18s5.21,2.32,5.21,5.18-2.33,5.18-5.21,5.18-5.21-2.32-5.21-5.18Z"/><path
                            class="cls-1 opacity02"
                            d="M1398.15,1329.45c0-2.86,2.33-5.18,5.21-5.18s5.21,2.32,5.21,5.18-2.33,5.18-5.21,5.18-5.21-2.32-5.21-5.18Z"/><path
                            class="cls-1 opacity03"
                            d="M1316.69,1377.7c0-2.86,2.33-5.18,5.21-5.18s5.21,2.32,5.21,5.18-2.33,5.18-5.21,5.18-5.21-2.32-5.21-5.18Z"/><path
                            class="cls-1 opacity03"
                            d="M1309.23,1423.51c0-2.86,2.33-5.18,5.21-5.18s5.21,2.32,5.21,5.18-2.33,5.18-5.21,5.18-5.21-2.32-5.21-5.18Z"/><path
                            class="cls-1 opacity01"
                            d="M1081.82,1343.31c0-2.86,2.33-5.18,5.21-5.18s5.21,2.32,5.21,5.18-2.33,5.18-5.21,5.18-5.21-2.32-5.21-5.18Z"/><path
                            class="cls-1 opacity04"
                            d="M1207.72,1267.32c0-2.86,2.33-5.18,5.21-5.18s5.21,2.32,5.21,5.18-2.33,5.18-5.21,5.18-5.21-2.32-5.21-5.18Z"/><path
                            class="cls-1 opacity04"
                            d="M1516.24,1151.95c0-2.86,2.33-5.18,5.21-5.18s5.21,2.32,5.21,5.18-2.33,5.18-5.21,5.18-5.21-2.32-5.21-5.18Z"/><path
                            class="cls-1 opacity04"
                            d="M1544.69,1137.9c0-2.86,2.33-5.18,5.21-5.18s5.21,2.32,5.21,5.18-2.33,5.18-5.21,5.18-5.21-2.32-5.21-5.18Z"/><path
                            class="cls-1 opacity04"
                            d="M1287.31,1483.28c0-2.86,2.33-5.18,5.21-5.18s5.21,2.32,5.21,5.18-2.33,5.18-5.21,5.18-5.21-2.32-5.21-5.18Z"/><path
                            class="cls-1 opacity02"
                            d="M1207.72,1555.75c0-2.86,2.33-5.18,5.21-5.18s5.21,2.32,5.21,5.18-2.33,5.18-5.21,5.18-5.21-2.32-5.21-5.18Z"/><path
                            class="cls-1 opacity01"
                            d="M681.06,1634.89c0-2.86,2.33-5.18,5.21-5.18s5.21,2.32,5.21,5.18-2.33,5.18-5.21,5.18-5.21-2.32-5.21-5.18Z"/><path
                            class="cls-1 opacity01"
                            d="M770.32,1630.45c0-2.86,2.33-5.18,5.21-5.18s5.21,2.32,5.21,5.18-2.33,5.18-5.21,5.18-5.21-2.32-5.21-5.18Z"/><path
                            class="cls-1 opacity03"
                            d="M1441.29,467.86c0-2.86,2.33-5.18,5.21-5.18s5.21,2.32,5.21,5.18-2.33,5.18-5.21,5.18-5.21-2.32-5.21-5.18Z"/><path
                            class="cls-1 opacity04"
                            d="M1457.66,387.98c0-2.86,2.33-5.18,5.21-5.18s5.21,2.32,5.21,5.18-2.33,5.18-5.21,5.18-5.21-2.32-5.21-5.18Z"/><path
                            class="cls-1 opacity04"
                            d="M1315.58,436.79c0-2.86,2.33-5.18,5.21-5.18s5.21,2.32,5.21,5.18-2.33,5.18-5.21,5.18-5.21-2.32-5.21-5.18Z"/><path
                            class="cls-1 opacity04"
                            d="M1198.05,476.73c0-2.86,2.33-5.18,5.21-5.18s5.21,2.32,5.21,5.18-2.33,5.18-5.21,5.18-5.21-2.32-5.21-5.18Z"/><path
                            class="cls-1 opacity02"
                            d="M1209.95,417.57c0-2.86,2.33-5.18,5.21-5.18s5.21,2.32,5.21,5.18-2.33,5.18-5.21,5.18-5.21-2.32-5.21-5.18Z"/><path
                            class="cls-1 opacity02"
                            d="M1611.64,703.78c0-2.86,2.33-5.18,5.21-5.18s5.21,2.32,5.21,5.18-2.33,5.18-5.21,5.18-5.21-2.32-5.21-5.18Z"/><path
                            class="cls-1 opacity01"
                            d="M1139.28,461.2c0-2.86,2.33-5.18,5.21-5.18s5.21,2.32,5.21,5.18-2.33,5.18-5.21,5.18-5.21-2.32-5.21-5.18Z"/><path
                            class="cls-1 opacity04"
                            d="M1120.68,336.21c0-2.86,2.33-5.18,5.21-5.18s5.21,2.32,5.21,5.18-2.33,5.18-5.21,5.18-5.21-2.32-5.21-5.18Z"/><path
                            class="cls-1 opacity01"
                            d="M1093.9,390.94c0-2.86,2.33-5.18,5.21-5.18s5.21,2.32,5.21,5.18-2.33,5.18-5.21,5.18-5.21-2.32-5.21-5.18Z"/><path
                            class="cls-1 opacity03"
                            d="M1025.47,325.86c0-2.86,2.33-5.18,5.21-5.18s5.21,2.32,5.21,5.18-2.33,5.18-5.21,5.18-5.21-2.32-5.21-5.18Z"/><path
                            class="cls-1 opacity04"
                            d="M809.38,214.19c0-2.86,2.33-5.18,5.21-5.18s5.21,2.32,5.21,5.18-2.33,5.18-5.21,5.18-5.21-2.32-5.21-5.18Z"/><path
                            class="cls-1 opacity04"
                            d="M728.29,115.82c0-2.86,2.33-5.18,5.21-5.18s5.21,2.32,5.21,5.18-2.33,5.18-5.21,5.18-5.21-2.32-5.21-5.18Z"/><path
                            class="cls-1 opacity02"
                            d="M728.67,41.87c0-2.86,2.33-5.18,5.21-5.18s5.21,2.32,5.21,5.18-2.33,5.18-5.21,5.18-5.21-2.32-5.21-5.18Z"/><path
                            class="cls-1 opacity03"
                            d="M825.37,82.54c0-2.86,2.33-5.18,5.21-5.18s5.21,2.32,5.21,5.18-2.33,5.18-5.21,5.18-5.21-2.32-5.21-5.18Z"/><path
                            class="cls-1 opacity01"
                            d="M925.79,48.52c0-2.86,2.33-5.18,5.21-5.18s5.21,2.32,5.21,5.18-2.33,5.18-5.21,5.18-5.21-2.32-5.21-5.18Z"/><path
                            class="cls-1 opacity01"
                            d="M1087.95,93.64c0-2.86,2.33-5.18,5.21-5.18s5.21,2.32,5.21,5.18-2.33,5.18-5.21,5.18-5.21-2.32-5.21-5.18Z"/><path
                            class="cls-1 opacity04"
                            d="M1156.39,123.22c0-2.86,2.33-5.18,5.21-5.18s5.21,2.32,5.21,5.18-2.33,5.18-5.21,5.18-5.21-2.32-5.21-5.18Z"/><path
                            class="cls-1 opacity04"
                            d="M985.3,35.95c0-2.86,2.33-5.18,5.21-5.18s5.21,2.32,5.21,5.18-2.33,5.18-5.21,5.18-5.21-2.32-5.21-5.18Z"/><path
                            class="cls-1 opacity02"
                            d="M1241.94,122.48c0-2.86,2.33-5.18,5.21-5.18s5.21,2.32,5.21,5.18-2.33,5.18-5.21,5.18-5.21-2.32-5.21-5.18Z"/><path
                            class="cls-1 opacity04"
                            d="M644.61,290.36c0-2.86,2.33-5.18,5.21-5.18s5.21,2.32,5.21,5.18-2.33,5.18-5.21,5.18-5.21-2.32-5.21-5.18Z"/><path
                            class="cls-1 opacity03"
                            d="M549.02,322.16c0-2.86,2.33-5.18,5.21-5.18s5.21,2.32,5.21,5.18-2.33,5.18-5.21,5.18-5.21-2.32-5.21-5.18Z"/><path
                            class="cls-1 opacity01"
                            d="M591.05,393.9c0-2.86,2.33-5.18,5.21-5.18s5.21,2.32,5.21,5.18-2.33,5.18-5.21,5.18-5.21-2.32-5.21-5.18Z"/><path
                            class="cls-1 opacity01"
                            d="M549.39,387.98c0-2.86,2.33-5.18,5.21-5.18s5.21,2.32,5.21,5.18-2.33,5.18-5.21,5.18-5.21-2.32-5.21-5.18Z"/><path
                            class="cls-1 opacity02"
                            d="M340.37,498.92c0-2.86,2.33-5.18,5.21-5.18s5.21,2.32,5.21,5.18-2.33,5.18-5.21,5.18-5.21-2.32-5.21-5.18Z"/><path
                            class="cls-1 opacity04"
                            d="M287.55,550.69c0-2.86,2.33-5.18,5.21-5.18s5.21,2.32,5.21,5.18-2.33,5.18-5.21,5.18-5.21-2.32-5.21-5.18Z"/><path
                            class="cls-1 opacity01"
                            d="M248.87,504.83c0-2.86,2.33-5.18,5.21-5.18s5.21,2.32,5.21,5.18-2.33,5.18-5.21,5.18-5.21-2.32-5.21-5.18Z"/><path
                            class="cls-1 opacity04"
                            d="M222.09,535.9c0-2.86,2.33-5.18,5.21-5.18s5.21,2.32,5.21,5.18-2.33,5.18-5.21,5.18-5.21-2.32-5.21-5.18Z"/><path
                            class="cls-1 opacity03"
                            d="M161.84,519.62c0-2.86,2.33-5.18,5.21-5.18s5.21,2.32,5.21,5.18-2.33,5.18-5.21,5.18-5.21-2.32-5.21-5.18Z"/><path
                            class="cls-1 opacity02"
                            d="M85.22,656.07c0-2.86,2.33-5.18,5.21-5.18s5.21,2.32,5.21,5.18-2.33,5.18-5.21,5.18-5.21-2.32-5.21-5.18Z"/><path
                            class="cls-1 opacity01"
                            d="M26.45,521.1c0-2.86,2.33-5.18,5.21-5.18s5.21,2.32,5.21,5.18-2.33,5.18-5.21,5.18-5.21-2.32-5.21-5.18Z"/><path
                            class="cls-1 opacity04"
                            d="M11.58,775.88c0-2.86,2.33-5.18,5.21-5.18s5.21,2.32,5.21,5.18-2.33,5.18-5.21,5.18-5.21-2.32-5.21-5.18Z"/><path
                            class="cls-1 opacity04"
                            d="M28.68,997.38c0-2.86,2.33-5.18,5.21-5.18s5.21,2.32,5.21,5.18-2.33,5.18-5.21,5.18-5.21-2.32-5.21-5.18Z"/><path
                            class="cls-1 opacity01"
                            d="M122.04,951.16c0-2.86,2.33-5.18,5.21-5.18s5.21,2.32,5.21,5.18-2.33,5.18-5.21,5.18-5.21-2.32-5.21-5.18Z"/><path
                            class="cls-1 opacity01"
                            d="M208.33,983.7c0-2.86,2.33-5.18,5.21-5.18s5.21,2.32,5.21,5.18-2.33,5.18-5.21,5.18-5.21-2.32-5.21-5.18Z"/><path
                            class="cls-1 opacity01"
                            d="M324.74,1129.77c0-2.86,2.33-5.18,5.21-5.18s5.21,2.32,5.21,5.18-2.33,5.18-5.21,5.18-5.21-2.32-5.21-5.18Z"/><path
                            class="cls-1 opacity02"
                            d="M181.18,1185.97c0-2.86,2.33-5.18,5.21-5.18s5.21,2.32,5.21,5.18-2.33,5.18-5.21,5.18-5.21-2.32-5.21-5.18Z"/><path
                            class="cls-1 opacity04"
                            d="M136.55,1251.79c0-2.86,2.33-5.18,5.21-5.18s5.21,2.32,5.21,5.18-2.33,5.18-5.21,5.18-5.21-2.32-5.21-5.18Z"/><path
                            class="cls-1 opacity03"
                            d="M128.36,1344.24c0-2.86,2.33-5.18,5.21-5.18s5.21,2.32,5.21,5.18-2.33,5.18-5.21,5.18-5.21-2.32-5.21-5.18Z"/><path
                            class="cls-1 opacity04"
                            d="M91.17,1268.8c0-2.86,2.33-5.18,5.21-5.18s5.21,2.32,5.21,5.18-2.33,5.18-5.21,5.18-5.21-2.32-5.21-5.18Z"/><path
                            class="cls-1 opacity01"
                            d="M230.83,1166.65c0-2.86,2.33-5.18,5.21-5.18s5.21,2.32,5.21,5.18-2.33,5.18-5.21,5.18-5.21-2.32-5.21-5.18Z"/><path
                            class="cls-1 opacity01"
                            d="M294.99,1248.19c0-2.86,2.33-5.18,5.21-5.18s5.21,2.32,5.21,5.18-2.33,5.18-5.21,5.18-5.21-2.32-5.21-5.18Z"/><path
                            class="cls-1 opacity04"
                            d="M316.19,1375.76c0-2.86,2.33-5.18,5.21-5.18s5.21,2.32,5.21,5.18-2.33,5.18-5.21,5.18-5.21-2.32-5.21-5.18Z"/><path
                            class="cls-1 opacity02"
                            d="M236.97,1216.57c0-2.86,2.33-5.18,5.21-5.18s5.21,2.32,5.21,5.18-2.33,5.18-5.21,5.18-5.21-2.32-5.21-5.18Z"/><path
                            class="cls-1 opacity04"
                            d="M446.74,1329.45c0-2.86,2.33-5.18,5.21-5.18s5.21,2.32,5.21,5.18-2.33,5.18-5.21,5.18-5.21-2.32-5.21-5.18Z"/><path
                            class="cls-1 opacity01"
                            d="M395.41,1450.37c0-2.86,2.33-5.18,5.21-5.18s5.21,2.32,5.21,5.18-2.33,5.18-5.21,5.18-5.21-2.32-5.21-5.18Z"/><path
                            class="cls-1 opacity01"
                            d="M588.07,1580.16c0-2.86,2.33-5.18,5.21-5.18s5.21,2.32,5.21,5.18-2.33,5.18-5.21,5.18-5.21-2.32-5.21-5.18Z"/><path
                            class="cls-1 opacity03"
                            d="M563.9,1533.57c0-2.86,2.33-5.18,5.21-5.18s5.21,2.32,5.21,5.18-2.33,5.18-5.21,5.18-5.21-2.32-5.21-5.18Z"/><path
                            class="cls-1 opacity03"
                            d="M750.98,1607.15c0-2.86,2.33-5.18,5.21-5.18s5.21,2.32,5.21,5.18-2.33,5.18-5.21,5.18-5.21-2.32-5.21-5.18Z"/><path
                            class="cls-1 opacity04"
                            d="M931,1597.54c0-2.86,2.33-5.18,5.21-5.18s5.21,2.32,5.21,5.18-2.33,5.18-5.21,5.18-5.21-2.32-5.21-5.18Z"/><path
                            class="cls-1 opacity01"
                            d="M986.42,1550.21c0-2.86,2.33-5.18,5.21-5.18s5.21,2.32,5.21,5.18-2.33,5.18-5.21,5.18-5.21-2.32-5.21-5.18Z"/><path
                            class="cls-1 opacity04"
                            d="M1160.85,1521.36c0-2.86,2.33-5.18,5.21-5.18s5.21,2.32,5.21,5.18-2.33,5.18-5.21,5.18-5.21-2.32-5.21-5.18Z"/><path
                            class="cls-1 opacity02"
                            d="M1232.92,1480.24c0-2.86,2.33-5.18,5.21-5.18s5.21,2.32,5.21,5.18-2.33,5.18-5.21,5.18-5.21-2.32-5.21-5.18Z"/><path
                            class="cls-1 opacity04"
                            d="M1251.98,1434.83c0-2.86,2.33-5.18,5.21-5.18s5.21,2.32,5.21,5.18-2.33,5.18-5.21,5.18-5.21-2.32-5.21-5.18Z"/><path
                            class="cls-1 opacity03"
                            d="M467.94,1538c0-2.86,2.33-5.18,5.21-5.18s5.21,2.32,5.21,5.18-2.33,5.18-5.21,5.18-5.21-2.32-5.21-5.18Z"/><path
                            class="cls-1 opacity01"
                            d="M92.14,1174.02c0-2.86,2.33-5.18,5.21-5.18s5.21,2.32,5.21,5.18-2.33,5.18-5.21,5.18-5.21-2.32-5.21-5.18Z"/><path
                            class="cls-1 opacity04"
                            d="M67.37,1117.93c0-2.86,2.33-5.18,5.21-5.18s5.21,2.32,5.21,5.18-2.33,5.18-5.21,5.18-5.21-2.32-5.21-5.18Z"/><path
                            class="cls-1 opacity01"
                            d="M123.9,826.54c0-2.86,2.33-5.18,5.21-5.18s5.21,2.32,5.21,5.18-2.33,5.18-5.21,5.18-5.21-2.32-5.21-5.18Z"/><path
                            class="cls-1 opacity04"
                            d="M277.14,828.76c0-2.86,2.33-5.18,5.21-5.18s5.21,2.32,5.21,5.18-2.33,5.18-5.21,5.18-5.21-2.32-5.21-5.18Z"/><path
                            class="cls-1 opacity04"
                            d="M218.37,824.33c0-2.86,2.33-5.18,5.21-5.18s5.21,2.32,5.21,5.18-2.33,5.18-5.21,5.18-5.21-2.32-5.21-5.18Z"/><path
                            class="cls-1 opacity02"
                            d="M389.21,722.2c0-2.86,2.33-5.18,5.21-5.18s5.21,2.32,5.21,5.18-2.33,5.18-5.21,5.18-5.21-2.32-5.21-5.18Z"/><path
                            class="cls-1 opacity01"
                            d="M402.01,899.65c0-2.86,2.33-5.18,5.21-5.18s5.21,2.32,5.21,5.18-2.33,5.18-5.21,5.18-5.21-2.32-5.21-5.18Z"/><path
                            class="cls-1 opacity03"
                            d="M544.23,628.4c0-2.86,2.33-5.18,5.21-5.18s5.21,2.32,5.21,5.18-2.33,5.18-5.21,5.18-5.21-2.32-5.21-5.18Z"/><path
                            class="cls-1 opacity03"
                            d="M202.75,846.51c0-2.86,2.33-5.18,5.21-5.18s5.21,2.32,5.21,5.18-2.33,5.18-5.21,5.18-5.21-2.32-5.21-5.18Z"/><path
                            class="cls-1 opacity02"
                            d="M467.94,321.79c0-2.86,2.33-5.18,5.21-5.18s5.21,2.32,5.21,5.18-2.33,5.18-5.21,5.18-5.21-2.32-5.21-5.18Z"/><path
                            class="cls-1 opacity04"
                            d="M244.78,337.69c0-2.86,2.33-5.18,5.21-5.18s5.21,2.32,5.21,5.18-2.33,5.18-5.21,5.18-5.21-2.32-5.21-5.18Z"/><path
                            class="cls-1 opacity04"
                            d="M201.26,262.26c0-2.86,2.33-5.18,5.21-5.18s5.21,2.32,5.21,5.18-2.33,5.18-5.21,5.18-5.21-2.32-5.21-5.18Z"/><path
                            class="cls-1 opacity01"
                            d="M474.63,106.21c0-2.86,2.33-5.18,5.21-5.18s5.21,2.32,5.21,5.18-2.33,5.18-5.21,5.18-5.21-2.32-5.21-5.18Z"/><path
                            class="cls-1 opacity01"
                            d="M161.09,360.99c0-2.86,2.33-5.18,5.21-5.18s5.21,2.32,5.21,5.18-2.33,5.18-5.21,5.18-5.21-2.32-5.21-5.18Z"/><path
                            class="cls-1 opacity01"
                            d="M405.83,73.67c0-2.86,2.33-5.18,5.21-5.18s5.21,2.32,5.21,5.18-2.33,5.18-5.21,5.18-5.21-2.32-5.21-5.18Z"/><path
                            class="cls-1 opacity02"
                            d="M1025.47,379.11c0-2.86,2.33-5.18,5.21-5.18s5.21,2.32,5.21,5.18-2.33,5.18-5.21,5.18-5.21-2.32-5.21-5.18Z"/><path
                            class="cls-1 opacity04"
                            d="M1332.69,243.4c0-2.86,2.33-5.18,5.21-5.18s5.21,2.32,5.21,5.18-2.33,5.18-5.21,5.18-5.21-2.32-5.21-5.18Z"/><path
                            class="cls-1 opacity03"
                            d="M1426.41,346.2c0-2.86,2.33-5.18,5.21-5.18s5.21,2.32,5.21,5.18-2.33,5.18-5.21,5.18-5.21-2.32-5.21-5.18Z"/><path
                            class="cls-1 opacity02"
                            d="M1185.4,186.82c0-2.86,2.33-5.18,5.21-5.18s5.21,2.32,5.21,5.18-2.33,5.18-5.21,5.18-5.21-2.32-5.21-5.18Z"/><path
                            class="cls-1 opacity01"
                            d="M1283.59,175.73c0-2.86,2.33-5.18,5.21-5.18s5.21,2.32,5.21,5.18-2.33,5.18-5.21,5.18-5.21-2.32-5.21-5.18Z"/></g><polyline
                            class="cls-4"
                            points="213.54 983.7 407.22 898.94 287.55 828.76 395.84 721.72 549.44 627.46 847.15 480.41 660.37 720.78 805.44 760.37 671.75 932.88 922.05 867.83"/><polyline
                            class="cls-4"
                            points="1059.53 1019.6 968.51 1170.42 1178.33 1215.18 1328.22 1062.46 1378.62 986.1 1322.27 977.78 1205.54 898.94 1448.92 806.39 1385.87 692.68 1205.54 898.94 1059.53 1019.6 875.6 1042.22 968.51 1170.42 650.93 1317.98 507.72 1087.47 671.75 932.88 407.22 898.94 507.72 1087.47 703.04 1153.45"/><polygon
                            class="cls-4"
                            points="1205.54 898.94 1138.23 749.06 922.05 867.83 1205.54 898.94"/><polyline
                            class="cls-4"
                            points="596.26 393.9 549.44 627.46 660.37 720.78 671.75 932.88 875.6 1042.22 922.05 867.83 805.44 760.37 953.34 627.46 1138.23 749.06 1311.11 601.72 953.34 627.46"/><polygon
                            class="cls-4"
                            points="395.84 721.72 660.37 720.78 407.22 898.94 395.84 721.72"/><line class="cls-4" x1="345.57" y1="498.92" x2="549.44" y2="627.46"/><polyline class="cls-4" points="875.6 1042.22 703.04 1153.45 671.75 932.88"/><polyline
                            class="cls-4"
                            points="968.51 1170.42 703.04 1153.45 650.93 1317.98 544.93 1352 451.95 1329.45 507.72 1087.47 329.95 1129.77 213.54 983.7 287.55 828.76 219.86 714.87 395.84 721.72 345.57 498.92 596.26 393.9 847.15 480.41 953.34 627.46 1144.49 461.2 1125.89 336.21 1215.16 417.57"/><line class="cls-4" x1="300.2" y1="1243.01" x2="507.72" y2="1087.47"/><line class="cls-4" x1="329.95" y1="1129.77" x2="407.22" y2="898.94"/><polyline
                            class="cls-4"
                            points="1059.53 1019.6 1178.33 1215.18 1205.54 898.94 1290.1 1032.7"/><line class="cls-4" x1="1090.93" y1="1284.52" x2="766.23" y2="1384.91"/><polyline
                            class="cls-4"
                            points="522.24 1471.07 626.01 1416.35 861.82 1473.66 766.23 1384.91 968.51 1170.42 1090.93 1284.52 861.82 1473.66 1087.02 1343.31 1228.55 1384.91"/><polyline
                            class="cls-4"
                            points="1178.33 1215.18 1212.92 1267.32 1087.02 1343.31"/><polyline class="cls-4" points="1311.11 601.72 1203.25 476.73 1320.79 436.79"/><line class="cls-4" x1="1099.11" y1="390.94" x2="1125.89" y2="336.21"/><line class="cls-4" x1="1138.23" y1="749.06" x2="1385.87" y2="692.68"/><polyline
                            class="cls-4"
                            points="1190.61 186.82 1030.68 325.86 814.58 214.18 847.15 480.41 1030.68 379.11"/><polyline
                            class="cls-4"
                            points="554.6 387.98 402.85 414.24 554.23 322.16 473.15 321.79 733.5 115.82 649.82 290.36 814.58 214.18 596.26 393.9"/><line class="cls-4" x1="345.57" y1="498.92" x2="396.16" y2="414.24"/><line class="cls-4" x1="292.76" y1="550.69" x2="219.86" y2="714.87"/><polyline class="cls-4" points="227.3 535.9 167.04 519.63 254.08 504.83"/><line class="cls-4" x1="847.15" y1="480.41" x2="1030.68" y2="325.86"/></g>
                    <g class="cls-7"><path
                        class="cls-1"
                        d="M928.44,43.52c2.54-1.31,5.67-.29,6.98,2.27,1.31,2.56,.31,5.69-2.23,7-2.54,1.3-5.67,.29-6.98-2.27-1.31-2.56-.31-5.69,2.23-7Z"/></g>
                </g>
            </g>
            <g><path
                class="cls-6 opacity01"
                d="M322.79,1135.81c0-2.86,2.33-5.18,5.21-5.18s5.21,2.32,5.21,5.18-2.33,5.18-5.21,5.18-5.21-2.32-5.21-5.18Z"/><path
                class="cls-6 opacity02"
                d="M1234.81,1178.06c2.54-1.3,5.67-.29,6.98,2.27,1.31,2.56,.31,5.69-2.23,7-2.54,1.3-5.67,.29-6.98-2.27-1.31-2.56-.31-5.69,2.23-7Z"/><path
                class="cls-6 opacity03"
                d="M1450.2,1085.13c2.54-1.3,5.67-.29,6.98,2.27,1.31,2.56,.31,5.69-2.23,7-2.54,1.31-5.67,.29-6.98-2.27-1.31-2.56-.31-5.69,2.23-7Z"/><path
                class="cls-6 opacity04"
                d="M1187.31,1284.77c3.27-1.68,7.29-.37,8.98,2.92,1.69,3.29,.4,7.32-2.87,8.99-3.27,1.68-7.29,.37-8.98-2.92-1.69-3.29-.4-7.32,2.87-8.99Z"/><path
                class="cls-6 opacity02"
                d="M1484.93,622.96c3.27-1.68,7.29-.37,8.98,2.92,1.69,3.29,.4,7.32-2.87,9-3.27,1.68-7.29,.37-8.98-2.92-1.69-3.29-.4-7.32,2.87-8.99Z"/><path
                class="cls-6 opacity01"
                d="M1364.98,276.51c3.27-1.68,7.29-.37,8.98,2.92,1.69,3.29,.4,7.32-2.87,8.99-3.27,1.68-7.29,.37-8.98-2.92-1.69-3.29-.4-7.32,2.87-8.99Z"/><path
                class="cls-6 opacity04"
                d="M983.34,277.07c3.27-1.68,7.29-.37,8.98,2.92,1.69,3.29,.4,7.32-2.87,8.99-3.27,1.68-7.29,.37-8.98-2.92-1.69-3.29-.4-7.32,2.87-8.99Z"/><path
                class="cls-6 opacity04"
                d="M635.38,257.42c3.27-1.68,7.29-.37,8.98,2.92,1.69,3.29,.4,7.32-2.87,8.99-3.27,1.68-7.29,.37-8.98-2.92-1.69-3.29-.4-7.32,2.87-8.99Z"/><path
                class="cls-6 opacity03"
                d="M553.2,43.75c3.27-1.68,7.29-.37,8.98,2.92,1.69,3.29,.4,7.32-2.87,9-3.27,1.68-7.29,.37-8.98-2.92-1.69-3.29-.4-7.32,2.87-8.99Z"/><path
                class="cls-6 opacity01"
                d="M831.83,653.34c3.27-1.68,7.29-.37,8.98,2.92,1.69,3.29,.4,7.32-2.87,9-3.27,1.68-7.29,.37-8.98-2.92-1.69-3.29-.4-7.32,2.87-8.99Z"/><path
                class="cls-6 opacity04"
                d="M820.14,951.84c3.27-1.68,7.29-.37,8.98,2.92,1.69,3.29,.4,7.32-2.87,9-3.27,1.68-7.29,.37-8.98-2.92-1.69-3.29-.4-7.32,2.87-8.99Z"/><path
                class="cls-6 opacity03"
                d="M262.4,301.6c3.27-1.68,7.29-.37,8.98,2.92,1.69,3.29,.41,7.32-2.87,8.99-3.27,1.68-7.29,.37-8.98-2.92-1.69-3.29-.4-7.32,2.87-8.99Z"/><path
                class="cls-6 opacity02"
                d="M49.84,606.68c3.27-1.68,7.29-.37,8.98,2.92,1.69,3.29,.4,7.32-2.87,9-3.27,1.68-7.29,.37-8.98-2.92-1.69-3.29-.4-7.32,2.87-9Z"/><path
                class="cls-6 opacity02"
                d="M3.61,498.73c3.27-1.68,7.29-.37,8.98,2.92,1.69,3.29,.4,7.32-2.87,8.99-3.27,1.68-7.29,.37-8.98-2.92s-.4-7.32,2.87-8.99Z"/><path
                class="cls-6 opacity01"
                d="M100.55,871.61c3.27-1.68,7.29-.37,8.98,2.92,1.69,3.29,.4,7.32-2.87,8.99-3.27,1.68-7.29,.37-8.98-2.92-1.69-3.29-.4-7.32,2.87-9Z"/><path
                class="cls-6 opacity04"
                d="M196.6,938.97c3.27-1.68,7.29-.37,8.98,2.92,1.69,3.29,.4,7.32-2.87,8.99-3.27,1.68-7.29,.37-8.98-2.92-1.69-3.29-.4-7.32,2.87-8.99Z"/><path
                class="cls-6 opacity04"
                d="M288.57,1049.38c3.27-1.68,7.29-.37,8.98,2.92,1.69,3.29,.4,7.32-2.87,8.99-3.27,1.68-7.29,.37-8.98-2.92-1.69-3.29-.4-7.32,2.87-8.99Z"/><path
                class="cls-6 opacity03"
                d="M295.5,916.25c3.27-1.68,7.29-.37,8.98,2.92,1.69,3.29,.4,7.32-2.87,9-3.27,1.68-7.29,.37-8.98-2.92-1.69-3.29-.4-7.32,2.87-8.99Z"/><path
                class="cls-6 opacity02"
                d="M216.85,837.46c3.27-1.68,7.29-.37,8.98,2.92,1.69,3.29,.4,7.32-2.87,8.99-3.27,1.68-7.29,.37-8.98-2.92-1.69-3.29-.4-7.32,2.87-8.99Z"/><path
                class="cls-6 opacity01"
                d="M253.23,1174.94c3.27-1.68,7.29-.37,8.98,2.92,1.69,3.29,.4,7.32-2.87,8.99-3.27,1.68-7.29,.37-8.98-2.92-1.69-3.29-.4-7.32,2.87-8.99Z"/><path
                class="cls-6 opacity04"
                d="M81.51,1238.78c3.27-1.68,7.29-.37,8.98,2.92,1.69,3.29,.4,7.32-2.87,8.99-3.27,1.68-7.29,.37-8.98-2.92-1.69-3.29-.4-7.32,2.87-9Z"/><path
                class="cls-6 opacity04"
                d="M1128.29,112.42c3.27-1.68,7.29-.37,8.98,2.92,1.69,3.29,.4,7.32-2.87,8.99-3.27,1.68-7.29,.37-8.98-2.92-1.69-3.29-.4-7.32,2.87-9Z"/><path
                class="cls-6 opacity03"
                d="M1179.71,93.57c3.27-1.68,7.29-.37,8.98,2.92,1.69,3.29,.4,7.32-2.87,8.99-3.27,1.68-7.29,.37-8.98-2.92-1.69-3.29-.4-7.32,2.87-8.99Z"/><path
                class="cls-6 opacity01"
                d="M1213.66,1502.63c3.27-1.68,7.29-.37,8.98,2.92,1.69,3.29,.4,7.32-2.87,8.99-3.27,1.68-7.29,.37-8.98-2.92-1.69-3.29-.4-7.32,2.87-9Z"/><path
                class="cls-6 opacity02"
                d="M1238.76,1569.8c3.27-1.68,7.29-.37,8.98,2.92,1.69,3.29,.4,7.32-2.87,8.99-3.27,1.68-7.29,.37-8.98-2.92-1.69-3.29-.4-7.32,2.87-8.99Z"/><path
                class="cls-6 opacity03"
                d="M922.92,1412.24c3.27-1.68,7.29-.37,8.98,2.92,1.69,3.29,.4,7.32-2.87,8.99-3.27,1.68-7.29,.37-8.98-2.92-1.69-3.29-.4-7.32,2.87-8.99Z"/><path
                class="cls-6 opacity01"
                d="M921.59,1218.67c3.27-1.68,7.29-.37,8.98,2.92,1.69,3.29,.4,7.32-2.87,8.99-3.27,1.68-7.29,.37-8.98-2.92-1.69-3.29-.4-7.32,2.87-8.99Z"/><path
                class="cls-6 opacity01"
                d="M572.15,1132.26c3.27-1.68,7.29-.37,8.98,2.92,1.69,3.29,.4,7.32-2.87,8.99-3.27,1.68-7.29,.37-8.98-2.92-1.69-3.29-.4-7.32,2.87-8.99Z"/><path
                class="cls-6 opacity02"
                d="M1023.5,1529.32c3.27-1.68,7.29-.37,8.98,2.92,1.69,3.29,.4,7.32-2.87,8.99-3.27,1.68-7.29,.37-8.98-2.92-1.69-3.29-.4-7.32,2.87-8.99Z"/><path
                class="cls-6 opacity04"
                d="M761.14,1640.08c3.27-1.68,7.29-.37,8.98,2.92,1.69,3.29,.4,7.32-2.87,9-3.27,1.68-7.29,.37-8.98-2.92-1.69-3.29-.4-7.32,2.87-8.99Z"/><path
                class="cls-6 opacity04"
                d="M627.68,1338.59c3.27-1.68,7.29-.37,8.98,2.92,1.69,3.29,.4,7.32-2.87,8.99-3.27,1.68-7.29,.37-8.98-2.92-1.69-3.29-.4-7.32,2.87-8.99Z"/><path
                class="cls-6 opacity04"
                d="M433.97,683.2c3.27-1.68,7.29-.37,8.98,2.92,1.69,3.29,.4,7.32-2.87,8.99-3.27,1.68-7.29,.37-8.98-2.92-1.69-3.29-.4-7.32,2.87-8.99Z"/><path
                class="cls-6 opacity01"
                d="M758.96,1566.57c3.27-1.68,7.29-.37,8.98,2.92,1.69,3.29,.4,7.32-2.87,8.99-3.27,1.68-7.29,.37-8.98-2.92-1.69-3.29-.4-7.32,2.87-8.99Z"/><path
                class="cls-6 opacity03"
                d="M493.66,1463.77c3.27-1.68,7.29-.37,8.98,2.92,1.69,3.29,.4,7.32-2.87,8.99-3.27,1.68-7.29,.37-8.98-2.92-1.69-3.29-.4-7.32,2.87-8.99Z"/><path
                class="cls-6 opacity02"
                d="M1392.54,1356.74c2.54-1.3,5.67-.29,6.98,2.27,1.31,2.56,.31,5.69-2.23,7-2.54,1.31-5.67,.29-6.98-2.27-1.31-2.56-.31-5.69,2.23-7Z"/><path
                class="cls-6 opacity02"
                d="M1362.91,1435.89c2.54-1.3,5.67-.29,6.98,2.27,1.31,2.56,.31,5.69-2.23,7-2.54,1.31-5.67,.29-6.98-2.27-1.31-2.56-.31-5.69,2.23-7Z"/><path
                class="cls-6 opacity04"
                d="M1285.02,1378.03c2.54-1.3,5.67-.29,6.98,2.27,1.31,2.56,.31,5.69-2.23,7-2.54,1.3-5.67,.29-6.98-2.27-1.31-2.56-.31-5.69,2.23-7Z"/><path
                class="cls-6 opacity01"
                d="M1115.59,1394.09c2.54-1.3,5.67-.29,6.98,2.27,1.31,2.56,.31,5.69-2.23,7-2.54,1.31-5.67,.29-6.98-2.27-1.31-2.56-.31-5.69,2.23-7Z"/><path
                class="cls-6 opacity04"
                d="M905.29,1359.63c2.54-1.3,5.67-.29,6.98,2.27,1.31,2.56,.31,5.69-2.23,7-2.54,1.3-5.67,.29-6.98-2.27-1.31-2.56-.31-5.69,2.23-7Z"/><path
                class="cls-6 opacity01"
                d="M1024.49,1092.44c2.54-1.3,5.67-.29,6.98,2.27,1.31,2.56,.31,5.69-2.23,7-2.54,1.31-5.67,.29-6.98-2.27-1.31-2.56-.32-5.69,2.23-7Z"/><path
                class="cls-6 opacity04"
                d="M863.49,801.8c2.54-1.3,5.67-.29,6.98,2.27,1.31,2.56,.31,5.69-2.23,7-2.54,1.31-5.67,.29-6.98-2.27-1.31-2.56-.32-5.69,2.23-7Z"/><path
                class="cls-6 opacity03"
                d="M647.71,760.65c2.54-1.31,5.67-.29,6.98,2.27,1.31,2.56,.32,5.69-2.23,7-2.54,1.31-5.67,.29-6.98-2.27-1.31-2.56-.31-5.69,2.23-7Z"/><path
                class="cls-6 opacity02"
                d="M643.35,992.25c2.54-1.31,5.67-.29,6.98,2.27,1.31,2.56,.31,5.69-2.23,7-2.54,1.31-5.67,.29-6.98-2.27-1.31-2.56-.31-5.69,2.23-7Z"/><path
                class="cls-6 opacity04"
                d="M465.4,888.53c2.54-1.3,5.67-.29,6.98,2.27,1.31,2.56,.31,5.69-2.23,7-2.54,1.31-5.67,.29-6.98-2.27-1.31-2.56-.31-5.69,2.23-7Z"/><path
                class="cls-6 opacity04"
                d="M1048.3,872.43c2.54-1.3,5.67-.29,6.98,2.27,1.31,2.56,.31,5.69-2.23,7-2.54,1.31-5.67,.29-6.98-2.27-1.31-2.56-.32-5.69,2.23-7Z"/><path
                class="cls-6 opacity01"
                d="M1131.39,709.13c2.54-1.3,5.67-.29,6.98,2.27,1.31,2.56,.31,5.69-2.23,7-2.54,1.3-5.67,.29-6.98-2.27-1.31-2.56-.31-5.69,2.23-7Z"/><path
                class="cls-6 opacity03"
                d="M996.36,1452.11c2.54-1.3,5.67-.29,6.98,2.27,1.31,2.56,.31,5.69-2.23,7-2.54,1.31-5.67,.29-6.98-2.27-1.31-2.56-.31-5.69,2.23-7Z"/><path
                class="cls-6 opacity01"
                d="M832.66,1403.58c2.54-1.3,5.67-.29,6.98,2.27,1.31,2.56,.31,5.69-2.23,7-2.54,1.3-5.67,.29-6.98-2.27-1.31-2.56-.31-5.69,2.23-7Z"/><path
                class="cls-6 opacity02"
                d="M841.74,1356.07c2.54-1.3,5.67-.29,6.98,2.27,1.31,2.56,.31,5.69-2.23,7-2.54,1.3-5.67,.29-6.98-2.27-1.31-2.56-.31-5.69,2.23-7Z"/><path
                class="cls-6 opacity04"
                d="M526.77,1293.79c2.54-1.3,5.67-.29,6.98,2.27,1.31,2.56,.32,5.69-2.23,7-2.54,1.3-5.67,.29-6.98-2.27-1.31-2.56-.31-5.69,2.23-7Z"/><path
                class="cls-6 opacity04"
                d="M747.84,1144.84c2.54-1.3,5.67-.29,6.98,2.27,1.31,2.56,.31,5.69-2.23,7-2.54,1.3-5.67,.29-6.98-2.27-1.31-2.56-.31-5.69,2.23-7Z"/><path
                class="cls-6"
                d="M629.4,1592.28c2.54-1.3,5.67-.29,6.98,2.27,1.31,2.56,.31,5.69-2.23,7-2.54,1.3-5.67,.29-6.98-2.27-1.31-2.56-.31-5.69,2.23-7Z"/><path
                class="cls-6 opacity03"
                d="M549.28,1541.83c2.54-1.3,5.67-.29,6.98,2.27,1.31,2.56,.31,5.69-2.23,7-2.54,1.3-5.67,.29-6.98-2.27-1.31-2.56-.31-5.69,2.23-7Z"/><path
                class="cls-6 opacity01"
                d="M505.12,1556.1c2.54-1.31,5.67-.29,6.98,2.27,1.31,2.56,.31,5.69-2.23,7-2.54,1.3-5.67,.29-6.98-2.27-1.31-2.56-.31-5.69,2.23-7Z"/><path
                class="cls-6 opacity04"
                d="M472.68,1317.15c2.54-1.31,5.67-.29,6.98,2.27,1.31,2.56,.31,5.69-2.23,7-2.54,1.3-5.67,.29-6.98-2.27-1.31-2.56-.31-5.69,2.23-7Z"/><path
                class="cls-6 opacity02"
                d="M597.76,1394.49c2.54-1.3,5.67-.29,6.98,2.27,1.31,2.56,.31,5.69-2.23,7-2.54,1.31-5.67,.29-6.98-2.27-1.31-2.56-.31-5.69,2.23-7Z"/><path
                class="cls-6 opacity04"
                d="M841.22,1616.34c2.54-1.3,5.67-.29,6.98,2.27,1.31,2.56,.32,5.69-2.23,7-2.54,1.3-5.67,.29-6.98-2.27-1.31-2.56-.31-5.69,2.23-7Z"/><path
                class="cls-6 opacity04"
                d="M866.71,1635.24c2.54-1.3,5.67-.29,6.98,2.27,1.31,2.56,.31,5.69-2.23,7-2.54,1.3-5.67,.29-6.98-2.27-1.31-2.56-.32-5.69,2.23-7Z"/><path
                class="cls-6 opacity03"
                d="M441.94,1563.87c2.54-1.3,5.67-.29,6.98,2.27,1.31,2.56,.31,5.69-2.23,7-2.54,1.3-5.67,.29-6.98-2.27-1.31-2.56-.31-5.69,2.23-7Z"/><path
                class="cls-6 opacity04"
                d="M341.12,1526.13c2.54-1.3,5.67-.29,6.98,2.27,1.31,2.56,.31,5.69-2.23,7-2.54,1.3-5.67,.29-6.98-2.27-1.31-2.56-.31-5.69,2.23-7Z"/><path
                class="cls-6 opacity02"
                d="M30.33,1093.65c2.54-1.3,5.67-.29,6.98,2.27,1.31,2.56,.31,5.69-2.23,7-2.54,1.31-5.67,.29-6.98-2.27-1.31-2.56-.31-5.69,2.23-7Z"/><path
                class="cls-6 opacity01"
                d="M75.02,1171.05c2.54-1.31,5.67-.29,6.98,2.27,1.31,2.56,.31,5.69-2.23,7-2.54,1.3-5.67,.29-6.98-2.27-1.31-2.56-.31-5.69,2.23-7Z"/><path
                class="cls-6 opacity01"
                d="M1415.7,1237.43c2.54-1.31,5.67-.29,6.98,2.27,1.31,2.56,.32,5.69-2.23,7-2.54,1.3-5.67,.29-6.98-2.27-1.31-2.56-.31-5.69,2.23-7Z"/><path
                class="cls-6 opacity04"
                d="M1494.24,1215.53c2.54-1.31,5.67-.29,6.98,2.27,1.31,2.56,.31,5.69-2.23,7-2.54,1.3-5.67,.29-6.98-2.27-1.31-2.56-.31-5.69,2.23-7Z"/><path
                class="cls-6 opacity04"
                d="M1385.96,1111.39c2.54-1.3,5.67-.29,6.98,2.27,1.31,2.56,.31,5.69-2.23,7-2.54,1.3-5.67,.29-6.98-2.27-1.31-2.56-.31-5.69,2.23-7Z"/><path
                class="cls-6 opacity03"
                d="M1296.78,1025.04c2.54-1.3,5.67-.29,6.98,2.27,1.31,2.56,.31,5.69-2.23,7-2.54,1.3-5.67,.29-6.98-2.27-1.31-2.56-.31-5.69,2.23-7Z"/><path
                class="cls-6 opacity02"
                d="M1354.86,1008.63c2.54-1.3,5.67-.29,6.98,2.27,1.31,2.56,.32,5.69-2.23,7-2.54,1.3-5.67,.29-6.98-2.27-1.31-2.56-.31-5.69,2.23-7Z"/><path
                class="cls-6 opacity02"
                d="M1283.54,1496.67c2.54-1.31,5.67-.29,6.98,2.27,1.31,2.56,.31,5.69-2.23,7-2.54,1.31-5.67,.29-6.98-2.27-1.31-2.56-.31-5.69,2.23-7Z"/><path
                class="cls-6 opacity01"
                d="M1283.78,965.67c2.54-1.3,5.67-.29,6.98,2.27,1.31,2.56,.31,5.69-2.23,7-2.54,1.3-5.67,.29-6.98-2.27-1.31-2.56-.31-5.69,2.23-7Z"/><path
                class="cls-6 opacity04"
                d="M1386.5,892.08c2.54-1.31,5.67-.29,6.98,2.27,1.31,2.56,.31,5.69-2.23,7-2.54,1.3-5.67,.29-6.98-2.27-1.31-2.56-.31-5.69,2.23-7Z"/><path
                class="cls-6 opacity04"
                d="M1325.58,893.23c2.54-1.31,5.67-.29,6.98,2.27,1.31,2.56,.31,5.69-2.23,7-2.54,1.3-5.67,.29-6.98-2.27-1.31-2.56-.31-5.69,2.23-7Z"/><path
                class="cls-6 opacity04"
                d="M1352.26,802.63c2.54-1.3,5.67-.29,6.98,2.27,1.31,2.56,.32,5.69-2.23,7-2.54,1.31-5.67,.29-6.98-2.27-1.31-2.56-.32-5.69,2.23-7Z"/><path
                class="cls-6 opacity01"
                d="M1352.99,559.39c2.54-1.3,5.67-.29,6.98,2.27,1.31,2.56,.31,5.69-2.23,7-2.54,1.3-5.67,.29-6.98-2.27-1.31-2.56-.31-5.69,2.23-7Z"/><path
                class="cls-6 opacity02"
                d="M1403.5,442.35c2.54-1.31,5.67-.29,6.98,2.27,1.31,2.56,.31,5.69-2.23,7-2.54,1.3-5.67,.29-6.98-2.27-1.31-2.56-.31-5.69,2.23-7Z"/><path
                class="cls-6 opacity03"
                d="M1469.48,408.93c2.54-1.3,5.67-.29,6.98,2.27,1.31,2.56,.32,5.69-2.23,7-2.54,1.31-5.67,.29-6.98-2.27-1.31-2.56-.31-5.69,2.23-7Z"/><path
                class="cls-6 opacity04"
                d="M1477.42,513.53c2.54-1.31,5.67-.29,6.98,2.27,1.31,2.56,.31,5.69-2.23,7-2.54,1.3-5.67,.29-6.98-2.27-1.31-2.56-.31-5.69,2.23-7Z"/><path
                class="cls-6 opacity01"
                d="M1553.53,587.36c2.54-1.31,5.67-.29,6.98,2.27,1.31,2.56,.31,5.69-2.23,7-2.54,1.31-5.67,.29-6.98-2.27-1.31-2.56-.31-5.69,2.23-7Z"/><path
                class="cls-6 opacity01"
                d="M1587.4,752.24c2.54-1.3,5.67-.29,6.98,2.27,1.31,2.56,.31,5.69-2.23,7-2.54,1.31-5.67,.29-6.98-2.27-1.31-2.56-.31-5.69,2.23-7Z"/><path
                class="cls-6 opacity04"
                d="M1592.31,826.63c2.54-1.3,5.67-.29,6.98,2.27,1.31,2.56,.31,5.69-2.23,7-2.54,1.31-5.67,.29-6.98-2.27-1.31-2.56-.31-5.69,2.23-7Z"/><path
                class="cls-6 opacity02"
                d="M1591.87,634.57c2.54-1.3,5.67-.29,6.98,2.27,1.31,2.56,.31,5.69-2.23,7-2.54,1.3-5.67,.29-6.98-2.27-1.31-2.56-.31-5.69,2.23-7Z"/><path
                class="cls-6 opacity04"
                d="M1632.02,902.41c2.54-1.3,5.67-.29,6.98,2.27,1.31,2.56,.31,5.69-2.23,7-2.54,1.31-5.67,.29-6.98-2.27-1.31-2.56-.31-5.69,2.23-7Z"/><path
                class="cls-6 opacity04"
                d="M1210.01,447.55c2.54-1.3,5.67-.29,6.98,2.27,1.31,2.56,.31,5.69-2.23,7-2.54,1.31-5.67,.29-6.98-2.27-1.31-2.56-.31-5.69,2.23-7Z"/><path
                class="cls-6 opacity03"
                d="M1138.09,377.02c2.54-1.3,5.67-.29,6.98,2.27,1.31,2.56,.31,5.69-2.23,7-2.54,1.31-5.67,.29-6.98-2.27-1.31-2.56-.31-5.69,2.23-7Z"/><path
                class="cls-6 opacity01"
                d="M1093.44,447.15c2.54-1.3,5.67-.29,6.98,2.27,1.31,2.56,.31,5.69-2.23,7-2.54,1.3-5.67,.29-6.98-2.27-1.31-2.56-.31-5.69,2.23-7Z"/><path
                class="cls-6 opacity01"
                d="M1079.69,407.39c2.54-1.31,5.67-.29,6.98,2.27,1.31,2.56,.31,5.69-2.23,7-2.54,1.3-5.67,.29-6.98-2.27-1.31-2.56-.31-5.69,2.23-7Z"/><path
                class="cls-6 opacity02"
                d="M885.58,272.04c2.54-1.3,5.67-.29,6.98,2.27,1.31,2.56,.31,5.69-2.23,7-2.54,1.3-5.67,.29-6.98-2.27-1.31-2.56-.31-5.69,2.23-7Z"/><path
                class="cls-6 opacity04"
                d="M815.42,248.67c2.54-1.3,5.67-.29,6.98,2.27,1.31,2.56,.31,5.69-2.23,7-2.54,1.3-5.67,.29-6.98-2.27-1.31-2.56-.31-5.69,2.23-7Z"/><path
                class="cls-6 opacity01"
                d="M838.56,193.33c2.54-1.3,5.67-.29,6.98,2.27,1.31,2.56,.31,5.69-2.23,7-2.54,1.3-5.67,.29-6.98-2.27-1.31-2.56-.31-5.69,2.23-7Z"/><path
                class="cls-6 opacity04"
                d="M798.7,183.68c2.54-1.3,5.67-.29,6.98,2.27,1.31,2.56,.31,5.69-2.23,7-2.54,1.31-5.67,.29-6.98-2.27-1.31-2.56-.32-5.69,2.23-7Z"/><path
                class="cls-6 opacity03"
                d="M785.67,122.64c2.54-1.3,5.67-.29,6.98,2.27,1.31,2.56,.31,5.69-2.23,7-2.54,1.31-5.67,.29-6.98-2.27-1.31-2.56-.31-5.69,2.23-7Z"/><path
                class="cls-6 opacity01"
                d="M629.3,116.74c2.54-1.3,5.67-.29,6.98,2.27,1.31,2.56,.31,5.69-2.23,7-2.54,1.3-5.67,.29-6.98-2.27-1.31-2.56-.31-5.69,2.23-7Z"/><path
                class="cls-6 opacity02"
                d="M722.57,2.85c2.54-1.31,5.67-.29,6.98,2.27,1.31,2.56,.31,5.69-2.23,7-2.54,1.3-5.67,.29-6.98-2.27-1.31-2.56-.31-5.69,2.23-7Z"/><path
                class="cls-6 opacity04"
                d="M489.08,105.9c2.54-1.3,5.67-.29,6.98,2.27,1.31,2.56,.31,5.69-2.23,7-2.54,1.3-5.67,.29-6.98-2.27-1.31-2.56-.31-5.69,2.23-7Z"/><path
                class="cls-6 opacity01"
                d="M634.12,.57c2.54-1.3,5.67-.29,6.98,2.27,1.31,2.56,.31,5.69-2.23,7-2.54,1.31-5.67,.29-6.98-2.27-1.31-2.56-.31-5.69,2.23-7Z"/><path
                class="cls-6 opacity01"
                d="M299.81,222.22c2.54-1.31,5.67-.29,6.98,2.27,1.31,2.56,.31,5.69-2.23,7-2.54,1.3-5.67,.29-6.98-2.27-1.31-2.56-.31-5.69,2.23-7Z"/><path
                class="cls-6 opacity04"
                d="M383.55,284.19c2.54-1.31,5.67-.29,6.98,2.27,1.31,2.56,.31,5.69-2.23,7-2.54,1.31-5.67,.29-6.98-2.27-1.31-2.56-.31-5.69,2.23-7Z"/><path
                class="cls-6 opacity03"
                d="M393.98,375.82c2.54-1.3,5.67-.29,6.98,2.27,1.31,2.56,.31,5.69-2.23,7-2.54,1.31-5.67,.29-6.98-2.27-1.31-2.56-.31-5.69,2.23-7Z"/><path
                class="cls-6 opacity01"
                d="M317.15,546.07c2.54-1.31,5.67-.29,6.98,2.27,1.31,2.56,.31,5.69-2.23,7-2.54,1.3-5.67,.29-6.98-2.27-1.31-2.56-.31-5.69,2.23-7Z"/><path
                class="cls-6 opacity02"
                d="M201.61,443.98c2.54-1.3,5.67-.29,6.98,2.27,1.31,2.56,.31,5.69-2.23,7-2.54,1.31-5.67,.29-6.98-2.27-1.31-2.56-.31-5.69,2.23-7Z"/><path
                class="cls-6 opacity02"
                d="M122.67,434.31c2.54-1.3,5.67-.29,6.98,2.27,1.31,2.56,.31,5.69-2.23,7-2.54,1.3-5.67,.29-6.98-2.27-1.31-2.56-.31-5.69,2.23-7Z"/><path
                class="cls-6 opacity01"
                d="M36.68,469.22c2.54-1.31,5.67-.29,6.98,2.27,1.31,2.56,.31,5.69-2.23,7-2.54,1.3-5.67,.29-6.98-2.27-1.31-2.56-.31-5.69,2.23-7Z"/><path
                class="cls-6 opacity04"
                d="M86.83,401.7c2.54-1.3,5.67-.29,6.98,2.27,1.31,2.56,.31,5.69-2.23,7-2.54,1.3-5.67,.29-6.98-2.27-1.31-2.56-.31-5.69,2.23-7Z"/><path
                class="cls-6 opacity02"
                d="M241.46,479.34c2.54-1.3,5.67-.29,6.98,2.27,1.31,2.56,.31,5.69-2.23,7-2.54,1.31-5.67,.29-6.98-2.27-1.31-2.56-.31-5.69,2.23-7Z"/><path
                class="cls-6 opacity01"
                d="M198.2,573.64c2.54-1.3,5.67-.29,6.98,2.27,1.31,2.56,.31,5.69-2.23,7-2.54,1.3-5.67,.29-6.98-2.27-1.31-2.56-.31-5.69,2.23-7Z"/><path
                class="cls-6 opacity03"
                d="M94.36,650.73c2.54-1.3,5.67-.29,6.98,2.27,1.31,2.56,.31,5.69-2.23,7-2.54,1.3-5.67,.29-6.98-2.27-1.31-2.56-.31-5.69,2.23-7Z"/><path
                class="cls-6 opacity03"
                d="M199.85,507.59c2.54-1.3,5.67-.29,6.98,2.27,1.31,2.56,.31,5.69-2.23,6.99-2.54,1.31-5.67,.29-6.98-2.27-1.31-2.56-.31-5.69,2.23-7Z"/><path
                class="cls-6 opacity02"
                d="M195.16,745.75c2.54-1.3,5.67-.29,6.98,2.27,1.31,2.56,.31,5.69-2.23,7-2.54,1.31-5.67,.29-6.98-2.27-1.31-2.56-.31-5.69,2.23-7Z"/><path
                class="cls-6 opacity01"
                d="M64.14,755.27c2.54-1.3,5.67-.29,6.98,2.27,1.31,2.56,.31,5.69-2.23,7-2.54,1.31-5.67,.29-6.98-2.27-1.31-2.56-.32-5.69,2.23-7Z"/><path
                class="cls-6 opacity02"
                d="M36.59,985.93c2.54-1.3,5.67-.29,6.98,2.27,1.31,2.56,.31,5.69-2.23,7-2.54,1.31-5.67,.29-6.98-2.27-1.31-2.56-.31-5.69,2.23-7Z"/><path
                class="cls-6 opacity01"
                d="M67.01,943.16c2.54-1.3,5.67-.29,6.98,2.27,1.31,2.56,.31,5.69-2.23,7-2.54,1.31-5.67,.29-6.98-2.27-1.31-2.56-.31-5.69,2.23-7Z"/><path
                class="cls-6 opacity03"
                d="M86.92,1143.2c2.54-1.3,5.67-.29,6.98,2.27,1.31,2.56,.31,5.69-2.23,7-2.54,1.3-5.67,.29-6.98-2.27-1.31-2.56-.32-5.69,2.23-7Z"/><path
                class="cls-6 opacity02"
                d="M177.64,1298.99c2.54-1.31,5.67-.29,6.98,2.27,1.31,2.56,.31,5.69-2.23,7-2.54,1.3-5.67,.29-6.98-2.27-1.31-2.56-.31-5.69,2.23-7Z"/><path
                class="cls-6 opacity03"
                d="M245.05,1326.7c2.54-1.3,5.67-.29,6.98,2.27,1.31,2.56,.31,5.69-2.23,7-2.54,1.31-5.67,.29-6.98-2.27-1.31-2.56-.31-5.69,2.23-7Z"/><path
                class="cls-6 opacity01"
                d="M350.33,1468.74c2.54-1.31,5.67-.29,6.98,2.27,1.31,2.56,.32,5.69-2.23,7-2.54,1.3-5.67,.29-6.98-2.27-1.31-2.56-.31-5.69,2.23-7Z"/><path
                class="cls-6 opacity01"
                d="M419.81,1514.09c2.54-1.31,5.67-.29,6.98,2.27,1.31,2.56,.31,5.69-2.23,7-2.54,1.31-5.67,.29-6.98-2.27-1.31-2.56-.31-5.69,2.23-7Z"/><path
                class="cls-6 opacity02"
                d="M468.91,1510.33c2.54-1.31,5.67-.29,6.98,2.27,1.31,2.56,.31,5.69-2.23,7-2.54,1.31-5.67,.29-6.98-2.27-1.31-2.56-.31-5.69,2.23-7Z"/><path
                class="cls-6 opacity03"
                d="M19.27,859.8c2.54-1.31,5.67-.29,6.98,2.27,1.31,2.56,.31,5.69-2.23,7-2.54,1.3-5.67,.29-6.98-2.27-1.31-2.56-.31-5.69,2.23-7Z"/><path
                class="cls-6 opacity02"
                d="M171.6,359.31c2.54-1.3,5.67-.29,6.98,2.27,1.31,2.56,.31,5.69-2.23,7-2.54,1.31-5.67,.29-6.98-2.27-1.31-2.56-.31-5.69,2.23-7Z"/><path
                class="cls-6 opacity02"
                d="M210.2,311.66c2.54-1.3,5.67-.29,6.98,2.27,1.31,2.56,.31,5.69-2.23,7-2.54,1.3-5.67,.29-6.98-2.27-1.31-2.56-.31-5.69,2.23-7Z"/><path
                class="cls-6 opacity01"
                d="M495.27,228.97c2.54-1.31,5.67-.29,6.98,2.27,1.31,2.56,.31,5.69-2.23,7-2.54,1.31-5.67,.29-6.98-2.27-1.31-2.56-.31-5.69,2.23-7Z"/><path
                class="cls-6 opacity03"
                d="M563.24,366.32c2.54-1.3,5.67-.29,6.98,2.27,1.31,2.56,.31,5.69-2.23,7-2.54,1.3-5.67,.29-6.98-2.27-1.31-2.56-.32-5.69,2.23-7Z"/><path
                class="cls-6 opacity04"
                d="M540.37,312.01c2.54-1.31,5.67-.29,6.98,2.27,1.31,2.56,.31,5.69-2.23,7-2.54,1.3-5.67,.29-6.98-2.27s-.31-5.69,2.23-7Z"/><path
                class="cls-6 opacity01"
                d="M709.21,417.41c2.54-1.3,5.67-.29,6.98,2.27,1.31,2.56,.31,5.69-2.23,7-2.54,1.3-5.67,.29-6.98-2.27-1.31-2.56-.31-5.69,2.23-7Z"/><path
                class="cls-6 opacity01"
                d="M557.16,509.79c2.54-1.3,5.67-.29,6.98,2.27,1.31,2.56,.31,5.69-2.23,7-2.54,1.3-5.67,.29-6.98-2.27-1.31-2.56-.31-5.69,2.23-7Z"/><path
                class="cls-6 opacity02"
                d="M863.43,512.53c2.55-1.31,5.67-.29,6.98,2.27,1.31,2.56,.32,5.69-2.23,7-2.54,1.31-5.67,.29-6.98-2.27-1.31-2.56-.31-5.69,2.23-7Z"/><path
                class="cls-6 opacity03"
                d="M513.49,308.24c2.54-1.31,5.67-.29,6.98,2.27,1.31,2.56,.31,5.69-2.23,7-2.54,1.31-5.67,.29-6.98-2.27-1.31-2.56-.31-5.69,2.23-7Z"/><path
                class="cls-6 opacity03"
                d="M1101.41,304.7c2.54-1.31,5.67-.29,6.98,2.27,1.31,2.56,.31,5.69-2.23,7-2.54,1.31-5.67,.29-6.98-2.27-1.31-2.56-.31-5.69,2.23-7Z"/><path
                class="cls-6 opacity04"
                d="M985.41,113.4c2.54-1.3,5.67-.29,6.98,2.27,1.31,2.56,.31,5.69-2.23,7-2.54,1.31-5.67,.29-6.98-2.27-1.31-2.56-.31-5.69,2.23-7Z"/><path
                class="cls-6 opacity01"
                d="M1032.67,40.25c2.54-1.3,5.67-.29,6.98,2.27,1.31,2.56,.31,5.69-2.23,7-2.54,1.31-5.67,.29-6.98-2.27-1.31-2.56-.31-5.69,2.23-7Z"/><path
                class="cls-6 opacity01"
                d="M1296.28,212.26c2.54-1.3,5.67-.29,6.98,2.27,1.31,2.56,.31,5.69-2.23,7-2.54,1.3-5.67,.29-6.98-2.27-1.31-2.56-.31-5.69,2.23-7Z"/><path
                class="cls-6 opacity01"
                d="M1293.83,136.19c2.54-1.3,5.67-.29,6.98,2.27,1.31,2.56,.31,5.69-2.23,7-2.54,1.3-5.67,.29-6.98-2.27-1.31-2.56-.31-5.69,2.23-7Z"/><path
                class="cls-6 opacity02"
                d="M1304.88,826.94c2.54-1.3,5.67-.29,6.98,2.27,1.31,2.56,.31,5.69-2.23,7-2.54,1.31-5.67,.29-6.98-2.27-1.31-2.56-.31-5.69,2.23-7Z"/><path
                class="cls-6 opacity03"
                d="M1565.85,1038.35c2.54-1.31,5.67-.29,6.98,2.27,1.31,2.56,.32,5.69-2.23,7-2.54,1.31-5.67,.29-6.98-2.27-1.31-2.56-.31-5.69,2.23-7Z"/><path
                class="cls-6 opacity02"
                d="M1517.16,1168.66c2.54-1.3,5.67-.29,6.98,2.27,1.31,2.56,.31,5.69-2.23,7-2.54,1.31-5.67,.29-6.98-2.27-1.31-2.56-.31-5.69,2.23-7Z"/><path
                class="cls-6 opacity01"
                d="M1548.96,881.47c2.54-1.3,5.67-.29,6.98,2.27,1.31,2.56,.31,5.69-2.23,7-2.54,1.31-5.67,.29-6.98-2.27-1.31-2.56-.31-5.69,2.23-7Z"/><path
                class="cls-6 opacity01"
                d="M1603.65,963.78c2.54-1.3,5.67-.29,6.98,2.27,1.31,2.56,.31,5.69-2.23,7-2.54,1.3-5.67,.29-6.98-2.27-1.31-2.56-.31-5.69,2.23-7Z"/><polyline
                class="cls-3"
                points="396.35 380.45 560.17 514.1 567.99 375.59 712.66 423.09 866.64 516.73 1133.36 714.51 834.23 658.03 865.21 805.17 650.71 764.95 822.83 957.98"/><polyline
                class="cls-3"
                points="750.54 1149.57 574.8 1137.43 630.74 1344.55 835.03 1408.21 925.98 1418.2 907.66 1364.27 924.54 1224.42 1117.97 1398.72 1190.36 1290.73 924.54 1224.42 750.54 1149.57 646.46 996.24 574.8 1137.43 298.55 922.2 438.3 689.57 650.71 764.95 560.17 514.1 438.3 689.57 468.73 893.47"/><polygon
                class="cls-3"
                points="924.54 1224.42 1027.17 1096.12 822.83 957.98 924.54 1224.42"/><polyline
                class="cls-3"
                points="1095.82 451.79 866.64 516.73 834.23 658.03 650.71 764.95 646.46 996.24 822.83 957.98 865.21 805.17 1050.98 876.11 1027.17 1096.12 1237.18 1182.69 1050.98 876.11"/><polygon
                class="cls-3"
                points="712.66 423.09 834.23 658.03 560.17 514.1 712.66 423.09"/><line class="cls-3" x1="887.96" y1="276.67" x2="866.64" y2="516.73"/><polyline class="cls-3" points="646.46 996.24 468.73 893.47 650.71 764.95"/><polyline
                class="cls-3"
                points="574.8 1137.43 468.73 893.47 298.55 922.2 219.9 843.41 197.53 750.38 438.3 689.57 319.52 550.7 396.35 380.45 567.99 375.59 638.43 263.38 712.66 423.09 887.96 276.67 1095.82 451.79 1133.36 714.51 1050.98 876.11 1286.16 970.3 1388.88 896.71 1357.24 1013.26"/><line class="cls-3" x1="205.18" y1="575.91" x2="438.3" y2="689.57"/><line class="cls-3" x1="319.52" y1="550.7" x2="560.17" y2="514.1"/><polyline
                class="cls-3"
                points="750.54 1149.57 630.74 1344.55 924.54 1224.42 844.12 1360.7"/><line class="cls-3" x1="529.15" y1="1298.42" x2="291.63" y2="1055.34"/><polyline
                class="cls-3"
                points="103.6 877.57 199.66 944.92 256.29 1180.9 291.63 1055.34 574.8 1137.43 529.15 1298.42 256.29 1180.9 475.05 1321.78 502.63 1466.69"/><polyline class="cls-3" points="630.74 1344.55 600.13 1399.12 475.05 1321.78"/><polyline
                class="cls-3"
                points="1237.18 1182.69 1299.16 1029.68 1388.34 1116.03"/><line class="cls-3" x1="1327.96" y1="897.86" x2="1388.88" y2="896.71"/><line class="cls-3" x1="1027.17" y1="1096.12" x2="1190.36" y2="1290.73"/><polyline
                class="cls-3"
                points="1551.34 886.11 1354.63 807.26 1355.37 564.02 1133.36 714.51 1307.26 831.57"/><polyline
                class="cls-3"
                points="1082.07 412.02 989.45 288.98 1140.47 381.65 1103.79 309.34 1405.88 446.98 1212.39 452.18 1355.37 564.02 1095.82 451.79"/><line class="cls-3" x1="887.96" y1="276.67" x2="986.39" y2="283.03"/><line class="cls-3" x1="817.79" y1="253.3" x2="638.43" y2="263.38"/><polyline class="cls-3" points="801.08 188.31 788.05 127.27 840.94 197.96"/><line class="cls-3" x1="1133.36" y1="714.51" x2="1354.63" y2="807.26"/></g>
            <g class="cls-7">
                <g>
                    <g><path
                        class="cls-5"
                        d="M38.97,990.57l30.42-42.78-47.75-83.36,44.88-104.53-14.27-146.92,81.39-84.39,40.35-164.65c69.68-95.3,161.97-176.14,274.02-233.62,385.96-197.98,860.27-43.78,1059.4,344.43,92.45,180.23,109.34,379.2,62.27,560.49-12.47,48.01-29.42,94.79-50.64,139.64l-99.3,67.17"/><polyline
                        class="cls-5"
                        points="551.33 1547.05 635.92 1597.71 497.67 1466.73 352.71 1473.37 247.27 1331.83 179.35 1303.13 102.37 1081.77 38.97 990.57"/><polygon
                        class="cls-5"
                        points="497.67 1466.73 507.49 1560.73 551.33 1547.05 422.19 1518.72 497.67 1466.73"/><polygon
                        class="cls-5"
                        points="1555.08 592 1471.37 414.23 1368.04 282.47 1555.08 592"/><polyline
                        class="cls-5"
                        points="1419.73 1242.05 1568.22 1042.98 1551.34 886.11 1593.37 831.94 1487.99 628.92 1555.08 592 1406.22 447.65 1369.77 288.27 1587.57 752.57 1487.99 628.92 1471.37 414.23 1348.3 305.55 1298.51 218.23 1103.97 310.5 1131.82 116.88"/><path
                        class="cls-5"
                        d="M66.52,759.9s37.62,107.36,36.25,116.84l-33.38,71.05-2.87-187.89,67.12-231.31,69.51-80.8,98.06-219.6s192.3,5.44,195.77,4.92c3.47-.53,134.69-111.73,134.69-111.73l156.04,5.23,141.15-72.4,202.96,62.68,236.22,165.59"/><polyline
                        class="cls-5"
                        points="102.37 1081.77 247.27 1331.83 497.67 1466.73 842.36 1620.98 551.33 1547.05 497.67 1466.73 470.47 1515.8"/><polyline
                        class="cls-5"
                        points="551.33 1547.05 247.27 1331.83 470.47 1515.8 179.07 1303.34 70.19 952.4 87.97 1147.68 247.27 1331.83 253.63 1180.59 38.97 990.57"/><polyline
                        class="cls-5"
                        points="385.92 288.82 396.19 380.95 496.98 233.11 638.43 263.38"/><polyline
                        class="cls-5"
                        points="320.18 550.36 52.24 612.98 396.19 380.95 265.45 307.56 320.18 550.36 203.15 447.79"/><polygon
                        class="cls-5"
                        points="985.41 283.53 1103.97 310.5 987.79 118.03 985.41 283.53"/><polyline
                        class="cls-5"
                        points="928.86 54.2 985.41 283.53 787.71 126.61 638.43 263.38 631.67 121.38"/><polygon
                        class="cls-5"
                        points="1190.53 1291.06 1419.73 1242.05 1237.18 1182.69 1190.53 1291.06"/><polyline
                        class="cls-5"
                        points="1119.03 1397.97 926.22 1417.45 842.36 1620.98 1394.92 1361.37"/><polyline
                        class="cls-5"
                        points="1237.18 1182.69 1387.34 1115.7 1419.73 1242.05"/><polyline
                        class="cls-5"
                        points="1568.22 1042.98 1387.34 1115.7 1551.34 886.11 1487.99 628.92 1355.52 562.69 1406.22 447.65 987.79 118.03"/><polyline
                        class="cls-5"
                        points="1355.52 562.69 1551.34 886.11 1389.54 896.37 1495.69 1220.35"/><path
                        class="cls-5"
                        d="M497.67,1466.73l102.47-67.61,446.39,65.72,72.51-66.87s104.84,120.12,98.43,110.86c-6.41-9.25-26.93-217.77-26.93-217.77l96.86,91.6,132.34-140.62-202.27,266.78"/><path
                        class="cls-5"
                        d="M600.13,1399.12l162.8,173.15,454.53-63.44-375.1,112.15-206.44-23.27,127.01-25.44,79.43,48.71,204.17-156.15,170.93,43.99,69.93-126.17,107.52-21.3,24.82-119.32,75.96-21.69c-72.71,130.97-183.53,242.41-326.56,315.78-214.04,109.79-455.25,111.27-661.63,24.6l-37.03-44.94-48.28,2.93c-93.22-53.09-176.51-125.61-243.12-215.38-25.73-34.68-48.98-71.93-69.34-111.64C-16.84,944.98-1.79,663.11,125.08,439.61l78.07,8.18,9.25-132.66,173.52-26.31,105.54-178.29,140.21,10.84L928.86,54.2l58.92,63.83,144.04-1.15,216.47,188.67,57.93,142.09,181.35,304.92"/><line class="cls-5" x1="197.53" y1="750.38" x2="203.15" y2="447.79"/><polyline
                        class="cls-5"
                        points="352.71 1473.37 253.63 1180.59 87.97 1147.68 102.76 876.75"/><polyline
                        class="cls-5"
                        points="301.21 228.19 631.67 121.38 212.4 315.13 52.24 612.98 197.53 750.38 102.76 876.75 253.63 1180.59 505.56 1462.68 762.93 1572.27"/><polyline class="cls-5" points="1119.03 1397.97 762.93 1572.27 926.22 1417.45"/><polygon
                        class="cls-5"
                        points="1299.16 1029.68 1285.16 969.98 1357.24 1013.26 1299.16 1029.68"/><polygon
                        class="cls-5"
                        points="1327.96 897.86 1354.63 807.26 1307.26 831.57 1327.96 897.86"/><polygon
                        class="cls-5"
                        points="198.67 945.43 291.45 1055.01 219.91 844.24 198.67 945.43"/><polyline class="cls-5" points="291.45 1055.01 299.03 920.7 198.67 945.43"/><polygon
                        class="cls-5"
                        points="516.55 314.19 563.58 366.99 541.77 317.98 516.55 314.19"/><polygon
                        class="cls-5"
                        points="477.61 1320.68 628.9 1343.4 528.98 1297.68 477.61 1320.68"/><polygon
                        class="cls-5"
                        points="1082.07 412.02 1212.39 452.18 1139.98 382.32 1095.82 451.79 1082.07 412.02"/><polygon
                        class="cls-5"
                        points="906.02 1365.11 835.03 1408.21 843.7 1360.29 906.02 1365.11"/><polygon
                        class="cls-5"
                        points="801.08 188.31 885.63 275.36 817.79 253.3 842.25 197.28 801.08 188.31"/></g>
                    <g><path
                        class="cls-9"
                        d="M1234.81,1178.06c2.54-1.3,5.67-.29,6.98,2.27,1.31,2.56,.31,5.69-2.23,7-2.54,1.3-5.67,.29-6.98-2.27-1.31-2.56-.31-5.69,2.23-7Z"/><path
                        class="cls-9"
                        d="M1450.2,1085.13c2.54-1.3,5.67-.29,6.98,2.27,1.31,2.56,.31,5.69-2.23,7-2.54,1.31-5.67,.29-6.98-2.27-1.31-2.56-.31-5.69,2.23-7Z"/><path
                        class="cls-9"
                        d="M1187.31,1284.77c3.27-1.68,7.29-.37,8.98,2.92,1.69,3.29,.4,7.32-2.87,8.99-3.27,1.68-7.29,.37-8.98-2.92-1.69-3.29-.4-7.32,2.87-8.99Z"/><path
                        class="cls-9"
                        d="M1484.93,622.96c3.27-1.68,7.29-.37,8.98,2.92,1.69,3.29,.4,7.32-2.87,9-3.27,1.68-7.29,.37-8.98-2.92-1.69-3.29-.4-7.32,2.87-8.99Z"/><path
                        class="cls-9"
                        d="M1364.98,276.51c3.27-1.68,7.29-.37,8.98,2.92,1.69,3.29,.4,7.32-2.87,8.99-3.27,1.68-7.29,.37-8.98-2.92-1.69-3.29-.4-7.32,2.87-8.99Z"/><path
                        class="cls-9"
                        d="M983.34,277.07c3.27-1.68,7.29-.37,8.98,2.92,1.69,3.29,.4,7.32-2.87,8.99-3.27,1.68-7.29,.37-8.98-2.92-1.69-3.29-.4-7.32,2.87-8.99Z"/><path
                        class="cls-9"
                        d="M635.38,257.42c3.27-1.68,7.29-.37,8.98,2.92,1.69,3.29,.4,7.32-2.87,8.99-3.27,1.68-7.29,.37-8.98-2.92-1.69-3.29-.4-7.32,2.87-8.99Z"/><path
                        class="cls-9"
                        d="M553.2,43.75c3.27-1.68,7.29-.37,8.98,2.92,1.69,3.29,.4,7.32-2.87,9-3.27,1.68-7.29,.37-8.98-2.92-1.69-3.29-.4-7.32,2.87-8.99Z"/><path
                        class="cls-9"
                        d="M831.83,653.34c3.27-1.68,7.29-.37,8.98,2.92,1.69,3.29,.4,7.32-2.87,9-3.27,1.68-7.29,.37-8.98-2.92-1.69-3.29-.4-7.32,2.87-8.99Z"/><path
                        class="cls-9"
                        d="M820.14,951.84c3.27-1.68,7.29-.37,8.98,2.92,1.69,3.29,.4,7.32-2.87,9-3.27,1.68-7.29,.37-8.98-2.92-1.69-3.29-.4-7.32,2.87-8.99Z"/><path
                        class="cls-9"
                        d="M262.4,301.6c3.27-1.68,7.29-.37,8.98,2.92,1.69,3.29,.41,7.32-2.87,8.99-3.27,1.68-7.29,.37-8.98-2.92-1.69-3.29-.4-7.32,2.87-8.99Z"/><path
                        class="cls-9"
                        d="M49.84,606.68c3.27-1.68,7.29-.37,8.98,2.92,1.69,3.29,.4,7.32-2.87,9-3.27,1.68-7.29,.37-8.98-2.92-1.69-3.29-.4-7.32,2.87-9Z"/><path
                        class="cls-9"
                        d="M3.61,498.73c3.27-1.68,7.29-.37,8.98,2.92,1.69,3.29,.4,7.32-2.87,8.99-3.27,1.68-7.29,.37-8.98-2.92-1.69-3.29-.4-7.32,2.87-8.99Z"/><path
                        class="cls-9"
                        d="M100.55,871.61c3.27-1.68,7.29-.37,8.98,2.92,1.69,3.29,.4,7.32-2.87,8.99-3.27,1.68-7.29,.37-8.98-2.92-1.69-3.29-.4-7.32,2.87-9Z"/><path
                        class="cls-9"
                        d="M196.6,938.97c3.27-1.68,7.29-.37,8.98,2.92,1.69,3.29,.4,7.32-2.87,8.99-3.27,1.68-7.29,.37-8.98-2.92-1.69-3.29-.4-7.32,2.87-8.99Z"/><path
                        class="cls-9"
                        d="M288.57,1049.38c3.27-1.68,7.29-.37,8.98,2.92,1.69,3.29,.4,7.32-2.87,8.99-3.27,1.68-7.29,.37-8.98-2.92-1.69-3.29-.4-7.32,2.87-8.99Z"/><path
                        class="cls-9"
                        d="M295.5,916.25c3.27-1.68,7.29-.37,8.98,2.92,1.69,3.29,.4,7.32-2.87,9-3.27,1.68-7.29,.37-8.98-2.92-1.69-3.29-.4-7.32,2.87-8.99Z"/><path
                        class="cls-9"
                        d="M216.85,837.46c3.27-1.68,7.29-.37,8.98,2.92,1.69,3.29,.4,7.32-2.87,8.99-3.27,1.68-7.29,.37-8.98-2.92-1.69-3.29-.4-7.32,2.87-8.99Z"/><path
                        class="cls-9"
                        d="M253.23,1174.94c3.27-1.68,7.29-.37,8.98,2.92,1.69,3.29,.4,7.32-2.87,8.99-3.27,1.68-7.29,.37-8.98-2.92-1.69-3.29-.4-7.32,2.87-8.99Z"/><path
                        class="cls-9"
                        d="M81.51,1238.78c3.27-1.68,7.29-.37,8.98,2.92,1.69,3.29,.4,7.32-2.87,8.99-3.27,1.68-7.29,.37-8.98-2.92-1.69-3.29-.4-7.32,2.87-9Z"/><path
                        class="cls-9"
                        d="M1128.29,112.42c3.27-1.68,7.29-.37,8.98,2.92,1.69,3.29,.4,7.32-2.87,8.99-3.27,1.68-7.29,.37-8.98-2.92-1.69-3.29-.4-7.32,2.87-9Z"/><path
                        class="cls-9"
                        d="M1179.71,93.57c3.27-1.68,7.29-.37,8.98,2.92,1.69,3.29,.4,7.32-2.87,8.99-3.27,1.68-7.29,.37-8.98-2.92-1.69-3.29-.4-7.32,2.87-8.99Z"/><path
                        class="cls-9"
                        d="M1213.66,1502.63c3.27-1.68,7.29-.37,8.98,2.92,1.69,3.29,.4,7.32-2.87,8.99-3.27,1.68-7.29,.37-8.98-2.92-1.69-3.29-.4-7.32,2.87-9Z"/><path
                        class="cls-9"
                        d="M1238.76,1569.8c3.27-1.68,7.29-.37,8.98,2.92,1.69,3.29,.4,7.32-2.87,8.99-3.27,1.68-7.29,.37-8.98-2.92-1.69-3.29-.4-7.32,2.87-8.99Z"/><path
                        class="cls-9"
                        d="M922.92,1412.24c3.27-1.68,7.29-.37,8.98,2.92,1.69,3.29,.4,7.32-2.87,8.99-3.27,1.68-7.29,.37-8.98-2.92-1.69-3.29-.4-7.32,2.87-8.99Z"/><path
                        class="cls-9"
                        d="M921.59,1218.67c3.27-1.68,7.29-.37,8.98,2.92,1.69,3.29,.4,7.32-2.87,8.99-3.27,1.68-7.29,.37-8.98-2.92-1.69-3.29-.4-7.32,2.87-8.99Z"/><path
                        class="cls-9"
                        d="M572.15,1132.26c3.27-1.68,7.29-.37,8.98,2.92,1.69,3.29,.4,7.32-2.87,8.99-3.27,1.68-7.29,.37-8.98-2.92-1.69-3.29-.4-7.32,2.87-8.99Z"/><path
                        class="cls-9"
                        d="M1023.5,1529.32c3.27-1.68,7.29-.37,8.98,2.92,1.69,3.29,.4,7.32-2.87,8.99-3.27,1.68-7.29,.37-8.98-2.92-1.69-3.29-.4-7.32,2.87-8.99Z"/><path
                        class="cls-9"
                        d="M761.14,1640.08c3.27-1.68,7.29-.37,8.98,2.92,1.69,3.29,.4,7.32-2.87,9-3.27,1.68-7.29,.37-8.98-2.92-1.69-3.29-.4-7.32,2.87-8.99Z"/><path
                        class="cls-9"
                        d="M627.68,1338.59c3.27-1.68,7.29-.37,8.98,2.92,1.69,3.29,.4,7.32-2.87,8.99-3.27,1.68-7.29,.37-8.98-2.92-1.69-3.29-.4-7.32,2.87-8.99Z"/><path
                        class="cls-9"
                        d="M433.97,683.2c3.27-1.68,7.29-.37,8.98,2.92,1.69,3.29,.4,7.32-2.87,8.99-3.27,1.68-7.29,.37-8.98-2.92-1.69-3.29-.4-7.32,2.87-8.99Z"/><path
                        class="cls-9"
                        d="M758.96,1566.57c3.27-1.68,7.29-.37,8.98,2.92,1.69,3.29,.4,7.32-2.87,8.99-3.27,1.68-7.29,.37-8.98-2.92-1.69-3.29-.4-7.32,2.87-8.99Z"/><path
                        class="cls-9"
                        d="M493.66,1463.77c3.27-1.68,7.29-.37,8.98,2.92,1.69,3.29,.4,7.32-2.87,8.99-3.27,1.68-7.29,.37-8.98-2.92-1.69-3.29-.4-7.32,2.87-8.99Z"/><path
                        class="cls-9"
                        d="M1392.54,1356.74c2.54-1.3,5.67-.29,6.98,2.27,1.31,2.56,.31,5.69-2.23,7-2.54,1.31-5.67,.29-6.98-2.27-1.31-2.56-.31-5.69,2.23-7Z"/><path
                        class="cls-9"
                        d="M1362.91,1435.89c2.54-1.3,5.67-.29,6.98,2.27,1.31,2.56,.31,5.69-2.23,7-2.54,1.31-5.67,.29-6.98-2.27-1.31-2.56-.31-5.69,2.23-7Z"/><path
                        class="cls-9"
                        d="M1285.02,1378.03c2.54-1.3,5.67-.29,6.98,2.27,1.31,2.56,.31,5.69-2.23,7-2.54,1.3-5.67,.29-6.98-2.27-1.31-2.56-.31-5.69,2.23-7Z"/><path
                        class="cls-9"
                        d="M1115.59,1394.09c2.54-1.3,5.67-.29,6.98,2.27,1.31,2.56,.31,5.69-2.23,7-2.54,1.31-5.67,.29-6.98-2.27-1.31-2.56-.31-5.69,2.23-7Z"/><path
                        class="cls-9"
                        d="M905.29,1359.63c2.54-1.3,5.67-.29,6.98,2.27,1.31,2.56,.31,5.69-2.23,7-2.54,1.3-5.67,.29-6.98-2.27-1.31-2.56-.31-5.69,2.23-7Z"/><path
                        class="cls-9"
                        d="M1024.49,1092.44c2.54-1.3,5.67-.29,6.98,2.27,1.31,2.56,.31,5.69-2.23,7-2.54,1.31-5.67,.29-6.98-2.27-1.31-2.56-.32-5.69,2.23-7Z"/><path
                        class="cls-9"
                        d="M863.49,801.8c2.54-1.3,5.67-.29,6.98,2.27,1.31,2.56,.31,5.69-2.23,7-2.54,1.31-5.67,.29-6.98-2.27-1.31-2.56-.32-5.69,2.23-7Z"/><path
                        class="cls-9"
                        d="M647.71,760.65c2.54-1.31,5.67-.29,6.98,2.27,1.31,2.56,.32,5.69-2.23,7-2.54,1.31-5.67,.29-6.98-2.27-1.31-2.56-.31-5.69,2.23-7Z"/><path
                        class="cls-9"
                        d="M643.35,992.25c2.54-1.31,5.67-.29,6.98,2.27,1.31,2.56,.31,5.69-2.23,7-2.54,1.31-5.67,.29-6.98-2.27-1.31-2.56-.31-5.69,2.23-7Z"/><path
                        class="cls-9"
                        d="M465.4,888.53c2.54-1.3,5.67-.29,6.98,2.27,1.31,2.56,.31,5.69-2.23,7-2.54,1.31-5.67,.29-6.98-2.27-1.31-2.56-.31-5.69,2.23-7Z"/><path
                        class="cls-9"
                        d="M1048.3,872.43c2.54-1.3,5.67-.29,6.98,2.27,1.31,2.56,.31,5.69-2.23,7-2.54,1.31-5.67,.29-6.98-2.27-1.31-2.56-.32-5.69,2.23-7Z"/><path
                        class="cls-9"
                        d="M1131.39,709.13c2.54-1.3,5.67-.29,6.98,2.27,1.31,2.56,.31,5.69-2.23,7-2.54,1.3-5.67,.29-6.98-2.27-1.31-2.56-.31-5.69,2.23-7Z"/><path
                        class="cls-9"
                        d="M996.36,1452.11c2.54-1.3,5.67-.29,6.98,2.27,1.31,2.56,.31,5.69-2.23,7-2.54,1.31-5.67,.29-6.98-2.27-1.31-2.56-.31-5.69,2.23-7Z"/><path
                        class="cls-9"
                        d="M832.66,1403.58c2.54-1.3,5.67-.29,6.98,2.27,1.31,2.56,.31,5.69-2.23,7-2.54,1.3-5.67,.29-6.98-2.27-1.31-2.56-.31-5.69,2.23-7Z"/><path
                        class="cls-9"
                        d="M841.74,1356.07c2.54-1.3,5.67-.29,6.98,2.27,1.31,2.56,.31,5.69-2.23,7-2.54,1.3-5.67,.29-6.98-2.27-1.31-2.56-.31-5.69,2.23-7Z"/><path
                        class="cls-9"
                        d="M526.77,1293.79c2.54-1.3,5.67-.29,6.98,2.27,1.31,2.56,.32,5.69-2.23,7-2.54,1.3-5.67,.29-6.98-2.27-1.31-2.56-.31-5.69,2.23-7Z"/><path
                        class="cls-9"
                        d="M747.84,1144.84c2.54-1.3,5.67-.29,6.98,2.27,1.31,2.56,.31,5.69-2.23,7-2.54,1.3-5.67,.29-6.98-2.27-1.31-2.56-.31-5.69,2.23-7Z"/><path
                        class="cls-9"
                        d="M629.4,1592.28c2.54-1.3,5.67-.29,6.98,2.27,1.31,2.56,.31,5.69-2.23,7-2.54,1.3-5.67,.29-6.98-2.27-1.31-2.56-.31-5.69,2.23-7Z"/><path
                        class="cls-9"
                        d="M549.28,1541.83c2.54-1.3,5.67-.29,6.98,2.27,1.31,2.56,.31,5.69-2.23,7-2.54,1.3-5.67,.29-6.98-2.27-1.31-2.56-.31-5.69,2.23-7Z"/><path
                        class="cls-9"
                        d="M505.12,1556.1c2.54-1.31,5.67-.29,6.98,2.27,1.31,2.56,.31,5.69-2.23,7-2.54,1.3-5.67,.29-6.98-2.27-1.31-2.56-.31-5.69,2.23-7Z"/><path
                        class="cls-9"
                        d="M472.68,1317.15c2.54-1.31,5.67-.29,6.98,2.27,1.31,2.56,.31,5.69-2.23,7-2.54,1.3-5.67,.29-6.98-2.27-1.31-2.56-.31-5.69,2.23-7Z"/><path
                        class="cls-9"
                        d="M597.76,1394.49c2.54-1.3,5.67-.29,6.98,2.27,1.31,2.56,.31,5.69-2.23,7-2.54,1.31-5.67,.29-6.98-2.27-1.31-2.56-.31-5.69,2.23-7Z"/><path
                        class="cls-9"
                        d="M841.22,1616.34c2.54-1.3,5.67-.29,6.98,2.27,1.31,2.56,.32,5.69-2.23,7-2.54,1.3-5.67,.29-6.98-2.27-1.31-2.56-.31-5.69,2.23-7Z"/><path
                        class="cls-9"
                        d="M866.71,1635.24c2.54-1.3,5.67-.29,6.98,2.27,1.31,2.56,.31,5.69-2.23,7-2.54,1.3-5.67,.29-6.98-2.27-1.31-2.56-.32-5.69,2.23-7Z"/><path
                        class="cls-9"
                        d="M441.94,1563.87c2.54-1.3,5.67-.29,6.98,2.27,1.31,2.56,.31,5.69-2.23,7-2.54,1.3-5.67,.29-6.98-2.27-1.31-2.56-.31-5.69,2.23-7Z"/><path
                        class="cls-9"
                        d="M341.12,1526.13c2.54-1.3,5.67-.29,6.98,2.27,1.31,2.56,.31,5.69-2.23,7-2.54,1.3-5.67,.29-6.98-2.27-1.31-2.56-.31-5.69,2.23-7Z"/><path
                        class="cls-9"
                        d="M30.33,1093.65c2.54-1.3,5.67-.29,6.98,2.27,1.31,2.56,.31,5.69-2.23,7-2.54,1.31-5.67,.29-6.98-2.27-1.31-2.56-.31-5.69,2.23-7Z"/><path
                        class="cls-9"
                        d="M75.02,1171.05c2.54-1.31,5.67-.29,6.98,2.27,1.31,2.56,.31,5.69-2.23,7-2.54,1.3-5.67,.29-6.98-2.27-1.31-2.56-.31-5.69,2.23-7Z"/><path
                        class="cls-9"
                        d="M1415.7,1237.43c2.54-1.31,5.67-.29,6.98,2.27,1.31,2.56,.32,5.69-2.23,7-2.54,1.3-5.67,.29-6.98-2.27-1.31-2.56-.31-5.69,2.23-7Z"/><path
                        class="cls-9"
                        d="M1494.24,1215.53c2.54-1.31,5.67-.29,6.98,2.27,1.31,2.56,.31,5.69-2.23,7-2.54,1.3-5.67,.29-6.98-2.27-1.31-2.56-.31-5.69,2.23-7Z"/><path
                        class="cls-9"
                        d="M1385.96,1111.39c2.54-1.3,5.67-.29,6.98,2.27,1.31,2.56,.31,5.69-2.23,7-2.54,1.3-5.67,.29-6.98-2.27-1.31-2.56-.31-5.69,2.23-7Z"/><path
                        class="cls-9"
                        d="M1296.78,1025.04c2.54-1.3,5.67-.29,6.98,2.27,1.31,2.56,.31,5.69-2.23,7-2.54,1.3-5.67,.29-6.98-2.27-1.31-2.56-.31-5.69,2.23-7Z"/><path
                        class="cls-9"
                        d="M1354.86,1008.63c2.54-1.3,5.67-.29,6.98,2.27,1.31,2.56,.32,5.69-2.23,7-2.54,1.3-5.67,.29-6.98-2.27-1.31-2.56-.31-5.69,2.23-7Z"/><path
                        class="cls-9"
                        d="M1283.54,1496.67c2.54-1.31,5.67-.29,6.98,2.27,1.31,2.56,.31,5.69-2.23,7-2.54,1.31-5.67,.29-6.98-2.27-1.31-2.56-.31-5.69,2.23-7Z"/><path
                        class="cls-9"
                        d="M1283.78,965.67c2.54-1.3,5.67-.29,6.98,2.27,1.31,2.56,.31,5.69-2.23,7-2.54,1.3-5.67,.29-6.98-2.27-1.31-2.56-.31-5.69,2.23-7Z"/><path
                        class="cls-9"
                        d="M1386.5,892.08c2.54-1.31,5.67-.29,6.98,2.27,1.31,2.56,.31,5.69-2.23,7-2.54,1.3-5.67,.29-6.98-2.27-1.31-2.56-.31-5.69,2.23-7Z"/><path
                        class="cls-9"
                        d="M1325.58,893.23c2.54-1.31,5.67-.29,6.98,2.27,1.31,2.56,.31,5.69-2.23,7-2.54,1.3-5.67,.29-6.98-2.27-1.31-2.56-.31-5.69,2.23-7Z"/><path
                        class="cls-9"
                        d="M1352.26,802.63c2.54-1.3,5.67-.29,6.98,2.27,1.31,2.56,.32,5.69-2.23,7-2.54,1.31-5.67,.29-6.98-2.27-1.31-2.56-.32-5.69,2.23-7Z"/><path
                        class="cls-9"
                        d="M1352.99,559.39c2.54-1.3,5.67-.29,6.98,2.27,1.31,2.56,.31,5.69-2.23,7-2.54,1.3-5.67,.29-6.98-2.27-1.31-2.56-.31-5.69,2.23-7Z"/><path
                        class="cls-9"
                        d="M1403.5,442.35c2.54-1.31,5.67-.29,6.98,2.27,1.31,2.56,.31,5.69-2.23,7-2.54,1.3-5.67,.29-6.98-2.27-1.31-2.56-.31-5.69,2.23-7Z"/><path
                        class="cls-9"
                        d="M1469.48,408.93c2.54-1.3,5.67-.29,6.98,2.27,1.31,2.56,.32,5.69-2.23,7-2.54,1.31-5.67,.29-6.98-2.27-1.31-2.56-.31-5.69,2.23-7Z"/><path
                        class="cls-9"
                        d="M1477.42,513.53c2.54-1.31,5.67-.29,6.98,2.27,1.31,2.56,.31,5.69-2.23,7-2.54,1.3-5.67,.29-6.98-2.27-1.31-2.56-.31-5.69,2.23-7Z"/><path
                        class="cls-9"
                        d="M1553.53,587.36c2.54-1.31,5.67-.29,6.98,2.27,1.31,2.56,.31,5.69-2.23,7-2.54,1.31-5.67,.29-6.98-2.27-1.31-2.56-.31-5.69,2.23-7Z"/><path
                        class="cls-9"
                        d="M1587.4,752.24c2.54-1.3,5.67-.29,6.98,2.27,1.31,2.56,.31,5.69-2.23,7-2.54,1.31-5.67,.29-6.98-2.27-1.31-2.56-.31-5.69,2.23-7Z"/><path
                        class="cls-9"
                        d="M1592.31,826.63c2.54-1.3,5.67-.29,6.98,2.27,1.31,2.56,.31,5.69-2.23,7-2.54,1.31-5.67,.29-6.98-2.27-1.31-2.56-.31-5.69,2.23-7Z"/><path
                        class="cls-9"
                        d="M1591.87,634.57c2.54-1.3,5.67-.29,6.98,2.27,1.31,2.56,.31,5.69-2.23,7-2.54,1.3-5.67,.29-6.98-2.27-1.31-2.56-.31-5.69,2.23-7Z"/><path
                        class="cls-9"
                        d="M1632.02,902.41c2.54-1.3,5.67-.29,6.98,2.27,1.31,2.56,.31,5.69-2.23,7-2.54,1.31-5.67,.29-6.98-2.27-1.31-2.56-.31-5.69,2.23-7Z"/><path
                        class="cls-9"
                        d="M1210.01,447.55c2.54-1.3,5.67-.29,6.98,2.27,1.31,2.56,.31,5.69-2.23,7-2.54,1.31-5.67,.29-6.98-2.27-1.31-2.56-.31-5.69,2.23-7Z"/><path
                        class="cls-9"
                        d="M1138.09,377.02c2.54-1.3,5.67-.29,6.98,2.27,1.31,2.56,.31,5.69-2.23,7-2.54,1.31-5.67,.29-6.98-2.27-1.31-2.56-.31-5.69,2.23-7Z"/><path
                        class="cls-9"
                        d="M1093.44,447.15c2.54-1.3,5.67-.29,6.98,2.27,1.31,2.56,.31,5.69-2.23,7-2.54,1.3-5.67,.29-6.98-2.27-1.31-2.56-.31-5.69,2.23-7Z"/><path
                        class="cls-9"
                        d="M1079.69,407.39c2.54-1.31,5.67-.29,6.98,2.27,1.31,2.56,.31,5.69-2.23,7-2.54,1.3-5.67,.29-6.98-2.27-1.31-2.56-.31-5.69,2.23-7Z"/><path
                        class="cls-9"
                        d="M885.58,272.04c2.54-1.3,5.67-.29,6.98,2.27,1.31,2.56,.31,5.69-2.23,7-2.54,1.3-5.67,.29-6.98-2.27-1.31-2.56-.31-5.69,2.23-7Z"/><path
                        class="cls-9"
                        d="M815.42,248.67c2.54-1.3,5.67-.29,6.98,2.27,1.31,2.56,.31,5.69-2.23,7-2.54,1.3-5.67,.29-6.98-2.27-1.31-2.56-.31-5.69,2.23-7Z"/><path
                        class="cls-9"
                        d="M838.56,193.33c2.54-1.3,5.67-.29,6.98,2.27,1.31,2.56,.31,5.69-2.23,7-2.54,1.3-5.67,.29-6.98-2.27-1.31-2.56-.31-5.69,2.23-7Z"/><path
                        class="cls-9"
                        d="M798.7,183.68c2.54-1.3,5.67-.29,6.98,2.27,1.31,2.56,.31,5.69-2.23,7-2.54,1.31-5.67,.29-6.98-2.27-1.31-2.56-.32-5.69,2.23-7Z"/><path
                        class="cls-9"
                        d="M785.67,122.64c2.54-1.3,5.67-.29,6.98,2.27,1.31,2.56,.31,5.69-2.23,7-2.54,1.31-5.67,.29-6.98-2.27-1.31-2.56-.31-5.69,2.23-7Z"/><path
                        class="cls-9"
                        d="M629.3,116.74c2.54-1.3,5.67-.29,6.98,2.27,1.31,2.56,.31,5.69-2.23,7-2.54,1.3-5.67,.29-6.98-2.27-1.31-2.56-.31-5.69,2.23-7Z"/><path
                        class="cls-9"
                        d="M722.57,2.85c2.54-1.31,5.67-.29,6.98,2.27,1.31,2.56,.31,5.69-2.23,7-2.54,1.3-5.67,.29-6.98-2.27-1.31-2.56-.31-5.69,2.23-7Z"/><path
                        class="cls-9"
                        d="M489.08,105.9c2.54-1.3,5.67-.29,6.98,2.27,1.31,2.56,.31,5.69-2.23,7-2.54,1.3-5.67,.29-6.98-2.27-1.31-2.56-.31-5.69,2.23-7Z"/><path
                        class="cls-9"
                        d="M634.12,.57c2.54-1.3,5.67-.29,6.98,2.27,1.31,2.56,.31,5.69-2.23,7-2.54,1.31-5.67,.29-6.98-2.27-1.31-2.56-.31-5.69,2.23-7Z"/><path
                        class="cls-9"
                        d="M299.81,222.22c2.54-1.31,5.67-.29,6.98,2.27,1.31,2.56,.31,5.69-2.23,7-2.54,1.3-5.67,.29-6.98-2.27-1.31-2.56-.31-5.69,2.23-7Z"/><path
                        class="cls-9"
                        d="M383.55,284.19c2.54-1.31,5.67-.29,6.98,2.27,1.31,2.56,.31,5.69-2.23,7-2.54,1.31-5.67,.29-6.98-2.27-1.31-2.56-.31-5.69,2.23-7Z"/><path
                        class="cls-9"
                        d="M393.98,375.82c2.54-1.3,5.67-.29,6.98,2.27,1.31,2.56,.31,5.69-2.23,7-2.54,1.31-5.67,.29-6.98-2.27-1.31-2.56-.31-5.69,2.23-7Z"/><path
                        class="cls-9"
                        d="M317.15,546.07c2.54-1.31,5.67-.29,6.98,2.27,1.31,2.56,.31,5.69-2.23,7-2.54,1.3-5.67,.29-6.98-2.27-1.31-2.56-.31-5.69,2.23-7Z"/><path
                        class="cls-9"
                        d="M201.61,443.98c2.54-1.3,5.67-.29,6.98,2.27,1.31,2.56,.31,5.69-2.23,7-2.54,1.31-5.67,.29-6.98-2.27-1.31-2.56-.31-5.69,2.23-7Z"/><path
                        class="cls-9"
                        d="M122.67,434.31c2.54-1.3,5.67-.29,6.98,2.27,1.31,2.56,.31,5.69-2.23,7-2.54,1.3-5.67,.29-6.98-2.27-1.31-2.56-.31-5.69,2.23-7Z"/><path
                        class="cls-9"
                        d="M36.68,469.22c2.54-1.31,5.67-.29,6.98,2.27,1.31,2.56,.31,5.69-2.23,7-2.54,1.3-5.67,.29-6.98-2.27-1.31-2.56-.31-5.69,2.23-7Z"/><path
                        class="cls-9"
                        d="M86.83,401.7c2.54-1.3,5.67-.29,6.98,2.27,1.31,2.56,.31,5.69-2.23,7-2.54,1.3-5.67,.29-6.98-2.27-1.31-2.56-.31-5.69,2.23-7Z"/><path
                        class="cls-9"
                        d="M241.46,479.34c2.54-1.3,5.67-.29,6.98,2.27,1.31,2.56,.31,5.69-2.23,7-2.54,1.31-5.67,.29-6.98-2.27-1.31-2.56-.31-5.69,2.23-7Z"/><path
                        class="cls-9"
                        d="M198.2,573.64c2.54-1.3,5.67-.29,6.98,2.27,1.31,2.56,.31,5.69-2.23,7-2.54,1.3-5.67,.29-6.98-2.27-1.31-2.56-.31-5.69,2.23-7Z"/><path
                        class="cls-9"
                        d="M94.36,650.73c2.54-1.3,5.67-.29,6.98,2.27,1.31,2.56,.31,5.69-2.23,7-2.54,1.3-5.67,.29-6.98-2.27-1.31-2.56-.31-5.69,2.23-7Z"/><path
                        class="cls-9"
                        d="M199.85,507.59c2.54-1.3,5.67-.29,6.98,2.27,1.31,2.56,.31,5.69-2.23,6.99-2.54,1.31-5.67,.29-6.98-2.27-1.31-2.56-.31-5.69,2.23-7Z"/><path
                        class="cls-9"
                        d="M195.16,745.75c2.54-1.3,5.67-.29,6.98,2.27,1.31,2.56,.31,5.69-2.23,7-2.54,1.31-5.67,.29-6.98-2.27-1.31-2.56-.31-5.69,2.23-7Z"/><path
                        class="cls-9"
                        d="M64.14,755.27c2.54-1.3,5.67-.29,6.98,2.27,1.31,2.56,.31,5.69-2.23,7-2.54,1.31-5.67,.29-6.98-2.27-1.31-2.56-.32-5.69,2.23-7Z"/><path
                        class="cls-9"
                        d="M36.59,985.93c2.54-1.3,5.67-.29,6.98,2.27,1.31,2.56,.31,5.69-2.23,7-2.54,1.31-5.67,.29-6.98-2.27-1.31-2.56-.31-5.69,2.23-7Z"/><path
                        class="cls-9"
                        d="M67.01,943.16c2.54-1.3,5.67-.29,6.98,2.27,1.31,2.56,.31,5.69-2.23,7-2.54,1.31-5.67,.29-6.98-2.27-1.31-2.56-.31-5.69,2.23-7Z"/><path
                        class="cls-9"
                        d="M86.92,1143.2c2.54-1.3,5.67-.29,6.98,2.27,1.31,2.56,.31,5.69-2.23,7-2.54,1.3-5.67,.29-6.98-2.27-1.31-2.56-.32-5.69,2.23-7Z"/><path
                        class="cls-9"
                        d="M177.64,1298.99c2.54-1.31,5.67-.29,6.98,2.27,1.31,2.56,.31,5.69-2.23,7-2.54,1.3-5.67,.29-6.98-2.27-1.31-2.56-.31-5.69,2.23-7Z"/><path
                        class="cls-9"
                        d="M245.05,1326.7c2.54-1.3,5.67-.29,6.98,2.27,1.31,2.56,.31,5.69-2.23,7-2.54,1.31-5.67,.29-6.98-2.27-1.31-2.56-.31-5.69,2.23-7Z"/><path
                        class="cls-9"
                        d="M350.33,1468.74c2.54-1.31,5.67-.29,6.98,2.27,1.31,2.56,.32,5.69-2.23,7-2.54,1.3-5.67,.29-6.98-2.27-1.31-2.56-.31-5.69,2.23-7Z"/><path
                        class="cls-9"
                        d="M419.81,1514.09c2.54-1.31,5.67-.29,6.98,2.27,1.31,2.56,.31,5.69-2.23,7-2.54,1.31-5.67,.29-6.98-2.27-1.31-2.56-.31-5.69,2.23-7Z"/><path
                        class="cls-9"
                        d="M468.91,1510.33c2.54-1.31,5.67-.29,6.98,2.27,1.31,2.56,.31,5.69-2.23,7-2.54,1.31-5.67,.29-6.98-2.27-1.31-2.56-.31-5.69,2.23-7Z"/><path
                        class="cls-9"
                        d="M19.27,859.8c2.54-1.31,5.67-.29,6.98,2.27,1.31,2.56,.31,5.69-2.23,7-2.54,1.3-5.67,.29-6.98-2.27-1.31-2.56-.31-5.69,2.23-7Z"/><path
                        class="cls-9"
                        d="M171.6,359.31c2.54-1.3,5.67-.29,6.98,2.27,1.31,2.56,.31,5.69-2.23,7-2.54,1.31-5.67,.29-6.98-2.27-1.31-2.56-.31-5.69,2.23-7Z"/><path
                        class="cls-9"
                        d="M210.2,311.66c2.54-1.3,5.67-.29,6.98,2.27,1.31,2.56,.31,5.69-2.23,7-2.54,1.3-5.67,.29-6.98-2.27-1.31-2.56-.31-5.69,2.23-7Z"/><path
                        class="cls-9"
                        d="M495.27,228.97c2.54-1.31,5.67-.29,6.98,2.27,1.31,2.56,.31,5.69-2.23,7-2.54,1.31-5.67,.29-6.98-2.27-1.31-2.56-.31-5.69,2.23-7Z"/><path
                        class="cls-9"
                        d="M563.24,366.32c2.54-1.3,5.67-.29,6.98,2.27,1.31,2.56,.31,5.69-2.23,7-2.54,1.3-5.67,.29-6.98-2.27-1.31-2.56-.32-5.69,2.23-7Z"/><path
                        class="cls-9"
                        d="M540.37,312.01c2.54-1.31,5.67-.29,6.98,2.27,1.31,2.56,.31,5.69-2.23,7-2.54,1.3-5.67,.29-6.98-2.27s-.31-5.69,2.23-7Z"/><path
                        class="cls-9"
                        d="M709.21,417.41c2.54-1.3,5.67-.29,6.98,2.27,1.31,2.56,.31,5.69-2.23,7-2.54,1.3-5.67,.29-6.98-2.27-1.31-2.56-.31-5.69,2.23-7Z"/><path
                        class="cls-9"
                        d="M557.16,509.79c2.54-1.3,5.67-.29,6.98,2.27,1.31,2.56,.31,5.69-2.23,7-2.54,1.3-5.67,.29-6.98-2.27-1.31-2.56-.31-5.69,2.23-7Z"/><path
                        class="cls-9"
                        d="M863.43,512.53c2.55-1.31,5.67-.29,6.98,2.27,1.31,2.56,.32,5.69-2.23,7-2.54,1.31-5.67,.29-6.98-2.27-1.31-2.56-.31-5.69,2.23-7Z"/><path
                        class="cls-9"
                        d="M513.49,308.24c2.54-1.31,5.67-.29,6.98,2.27,1.31,2.56,.31,5.69-2.23,7-2.54,1.31-5.67,.29-6.98-2.27-1.31-2.56-.31-5.69,2.23-7Z"/><path
                        class="cls-9"
                        d="M1101.41,304.7c2.54-1.31,5.67-.29,6.98,2.27,1.31,2.56,.31,5.69-2.23,7-2.54,1.31-5.67,.29-6.98-2.27-1.31-2.56-.31-5.69,2.23-7Z"/><path
                        class="cls-9"
                        d="M985.41,113.4c2.54-1.3,5.67-.29,6.98,2.27,1.31,2.56,.31,5.69-2.23,7-2.54,1.31-5.67,.29-6.98-2.27-1.31-2.56-.31-5.69,2.23-7Z"/><path
                        class="cls-9"
                        d="M1032.67,40.25c2.54-1.3,5.67-.29,6.98,2.27,1.31,2.56,.31,5.69-2.23,7-2.54,1.31-5.67,.29-6.98-2.27-1.31-2.56-.31-5.69,2.23-7Z"/><path
                        class="cls-9"
                        d="M1296.28,212.26c2.54-1.3,5.67-.29,6.98,2.27,1.31,2.56,.31,5.69-2.23,7-2.54,1.3-5.67,.29-6.98-2.27-1.31-2.56-.31-5.69,2.23-7Z"/><path
                        class="cls-9"
                        d="M926.48,49.57c2.54-1.31,5.67-.29,6.98,2.27,1.31,2.56,.31,5.69-2.23,7-2.54,1.3-5.67,.29-6.98-2.27-1.31-2.56-.31-5.69,2.23-7Z"/><path
                        class="cls-9"
                        d="M1293.83,136.19c2.54-1.3,5.67-.29,6.98,2.27,1.31,2.56,.31,5.69-2.23,7-2.54,1.3-5.67,.29-6.98-2.27-1.31-2.56-.31-5.69,2.23-7Z"/><path
                        class="cls-9"
                        d="M1304.88,826.94c2.54-1.3,5.67-.29,6.98,2.27,1.31,2.56,.31,5.69-2.23,7-2.54,1.31-5.67,.29-6.98-2.27-1.31-2.56-.31-5.69,2.23-7Z"/><path
                        class="cls-9"
                        d="M1565.85,1038.35c2.54-1.31,5.67-.29,6.98,2.27,1.31,2.56,.32,5.69-2.23,7-2.54,1.31-5.67,.29-6.98-2.27-1.31-2.56-.31-5.69,2.23-7Z"/><path
                        class="cls-9"
                        d="M1517.16,1168.66c2.54-1.3,5.67-.29,6.98,2.27,1.31,2.56,.31,5.69-2.23,7-2.54,1.31-5.67,.29-6.98-2.27-1.31-2.56-.31-5.69,2.23-7Z"/><path
                        class="cls-9"
                        d="M1548.96,881.47c2.54-1.3,5.67-.29,6.98,2.27,1.31,2.56,.31,5.69-2.23,7-2.54,1.31-5.67,.29-6.98-2.27-1.31-2.56-.31-5.69,2.23-7Z"/><path
                        class="cls-9"
                        d="M1603.65,963.78c2.54-1.3,5.67-.29,6.98,2.27,1.31,2.56,.31,5.69-2.23,7-2.54,1.3-5.67,.29-6.98-2.27-1.31-2.56-.31-5.69,2.23-7Z"/></g>
                </g>
            </g>
        </g>
    </g>
</svg>