<svg xmlns="http://www.w3.org/2000/svg" width="190" height="32.999" viewBox="0 0 190 32.999">
  <path id="Color_Overlay" data-name="Color Overlay" d="M59,164.5A16.326,16.326,0,1,1,75.326,181,16.413,16.413,0,0,1,59,164.5Zm4.89,4.882a5.111,5.111,0,0,0,.3,1.631,9.381,9.381,0,0,0,.447,1.123,9.99,9.99,0,0,0,3.739,4.242,12.055,12.055,0,0,0,7.286,1.6c.618-.088.739-.715.124-.893a12.486,12.486,0,0,1-1.485-.521,5.465,5.465,0,0,1-1.441-.829.393.393,0,0,1-.058-.545,9.651,9.651,0,0,0,1.168-2.029c.445-1.083.005-1.188-.685-.988-.75.218-1.341.438-1.8.613-.644.242-1.042.392-1.276.275s-.291-.547-.378-1.26a15.205,15.205,0,0,0-.3-1.645c-.277-1.129-.754-.913-1.15-.451-.061.076-.119.153-.174.232a6.4,6.4,0,0,0-.527.946c-.1.22-.19.417-.266.563a.706.706,0,0,1-.085.131.308.308,0,0,1-.193.12.3.3,0,0,1-.109,0c-.339-.074-.79-.607-1.281-1.24-.359-.464-.618-.873-.834-1.172s-.39-.489-.576-.51a.392.392,0,0,0-.055,0C64.024,168.767,63.9,169.006,63.89,169.382Zm7.844-18.139a.879.879,0,0,0-.1.015,8.588,8.588,0,0,0-4.076,2.158,6.5,6.5,0,0,0-2.086,5.6c.2,1.593,1.207,4.283,6.4,7.372,1.107.66,2.118,1.218,3.308,1.883.713.4,1.491.837,2.391,1.356,3.25,1.879,4.745,4.3,2.731,6.937-.153.184-.284.375-.229.544.062.192.312.225.547.12a8.149,8.149,0,0,0,3.427-2.8c1.071-1.761,1.6-5.218-3.074-8.052-4.426-2.683-6.623-3.743-8.414-5.035-.185-.134-.361-.266-.528-.4a8.321,8.321,0,0,1-2.628-2.993,4.246,4.246,0,0,1-.2-.532,4.113,4.113,0,0,1-.117-.486c-.027-.154-.044-.3-.056-.438a4.539,4.539,0,0,1,1.232-3.308,6.152,6.152,0,0,1,1.606-1.307.5.5,0,0,0,.248-.306.293.293,0,0,0-.018-.158.269.269,0,0,0-.224-.174.453.453,0,0,0-.076-.006C71.772,151.239,71.753,151.241,71.735,151.242Zm3.988.722c-.065.093-.065.218.039.4a1.559,1.559,0,0,0,.14.205,2.762,2.762,0,0,1,.836,2.845,10.243,10.243,0,0,0-.324,2.533,5.232,5.232,0,0,0,.308,1.8,2.443,2.443,0,0,0,1.681,1.634,1.914,1.914,0,0,0,1.834-.446,1.484,1.484,0,0,0,.25-.361,1.378,1.378,0,0,0-.064-1.36,3.575,3.575,0,0,1-.546-1.241,1.167,1.167,0,0,1-.018-.251.64.64,0,0,1,.3-.55.815.815,0,0,1,1.037.186,2.865,2.865,0,0,1,.626.949,3.921,3.921,0,0,0,1.015,1.492,1.165,1.165,0,0,0,.753.284,1.024,1.024,0,0,0,.194-.023,1.88,1.88,0,0,0,.994-.722,2.553,2.553,0,0,0,.531-1.11,1.837,1.837,0,0,0,.031-.23,1.753,1.753,0,0,0,0-.228,1.648,1.648,0,0,0-.026-.222,1.726,1.726,0,0,0-1.372-1.328,3.8,3.8,0,0,1-1.77-.784.663.663,0,0,1-.1-.157.416.416,0,0,1,.1-.52c.147-.107.345-.07.576.042a4.163,4.163,0,0,0,1.084.455.765.765,0,0,0,.162,0c.3-.027.437-.256.4-.569a2.09,2.09,0,0,0-.914-1.269,3.918,3.918,0,0,0-.561-.339,6.282,6.282,0,0,0-3.27-.65,7.134,7.134,0,0,1-1.351-.063,9.275,9.275,0,0,1-.975-.229c-.328-.091-.642-.184-.9-.238a2.016,2.016,0,0,0-.4-.052A.338.338,0,0,0,75.722,151.964Zm166.015,24.707V155.239a2.488,2.488,0,0,0-.607-1.894c-.3-.383-.126-.741.254-.741h4.327v8.082H249v2.941h-3.29v13.043Zm-32.614,0V170.3H199.1v-2.89h24.115v2.89h-10v6.367Zm-16.388,0V164.677h-4.909v-2.967h4.909v-6.47a2.491,2.491,0,0,0-.607-1.894c-.329-.383-.127-.741.253-.741h4.326v24.066Zm-35.448-.306c-3.063,0-4.2-.538-4.2-3.12V169.92a1.979,1.979,0,0,0-.531-1.331c-.3-.383-.1-.741.253-.741h4.3v4.577c0,.922.329,1.049,1.164,1.049h13.792v2.89Zm-25.885,0c-3.062,0-4.326-.664-4.326-3.248V170.3a1.973,1.973,0,0,0-.533-1.329c-.3-.384-.1-.743.254-.743h4.3v4.195c0,.921.328,1.049,1.165,1.049h13.284v2.89Zm-24.872,0c-3.061,0-4.2-.537-4.2-3.119v-3.965a1.975,1.975,0,0,0-.531-1.329c-.3-.383-.1-.743.253-.743h4.3v5.218c0,.921.329,1.049,1.164,1.049h13.538v2.89Zm69.15-2.839-1.772-2.2a19.454,19.454,0,0,0,3.416-2.787,9.659,9.659,0,0,0,3.188-7.289v-2.481H175v-2.89h5.516V154.4a1.889,1.889,0,0,0-.53-1.637c-.3-.384-.1-.742.253-.742h4.377v3.862H189.9v2.89h-5.289v2.455a9.05,9.05,0,0,0,2.961,6.752,17.675,17.675,0,0,0,3.442,2.481l-1.467,2.276c-.38.537-1.949-.282-3.9-2.225a15.78,15.78,0,0,1-2.859-3.785,17.2,17.2,0,0,1-3.542,4.553c-1.773,1.671-2.731,2.407-3.243,2.407A.388.388,0,0,1,175.68,173.525Zm49.913-.511-1.771-2.2a19.418,19.418,0,0,0,3.416-2.788,9.518,9.518,0,0,0,3.036-7.289v-4.271h-5.01v-2.89h14.019v2.89H234.4v4.245a9.055,9.055,0,0,0,2.809,6.753,18.735,18.735,0,0,0,3.315,2.48l-1.468,2.277c-.355.563-2-.461-3.72-2.123a12.7,12.7,0,0,1-2.784-3.887,14.45,14.45,0,0,1-3.315,4.578c-1.531,1.419-2.767,2.348-3.361,2.348A.336.336,0,0,1,225.593,173.014Zm-57.477-4.144V152.6h3.619v16.266Zm-26.846,0V155.213a2.483,2.483,0,0,0-.607-1.892c-.329-.384-.127-.716.253-.716h4.327v6.035h2.885v2.89h-2.885v7.34Zm-24.618-.358v-13.3a2.422,2.422,0,0,0-.633-1.892c-.3-.384-.1-.716.279-.716h4.326v15.908Zm46-.332v-7.213H160.3v4.757H153.44c-3.062,0-3.847-.716-3.847-3.172v-6.521a2.34,2.34,0,0,0-.633-1.893c-.3-.384-.1-.742.279-.742h3.871v3.529h3.669V153.4H160.3v4.68h2.353v-2.941a2.355,2.355,0,0,0-.506-1.662c-.3-.435-.1-.716.228-.716h3.872V168.18Zm-9.54-6.189c0,.792.152.921.962.921h2.707V159.74h-3.669Zm-28.39-1.125a4.884,4.884,0,0,1,1.215-3.3h-2.657v-2.813h6.149V154.5a2.449,2.449,0,0,0-.532-1.892c-.329-.384-.126-.716.253-.716h4.328v2.865h5.744v2.813h-2.657a4.9,4.9,0,0,1,1.264,3.3c0,3.222-2.353,5.677-6.553,5.677C127.1,166.543,124.721,164.088,124.721,160.866Zm3.8-.129a2.774,2.774,0,1,0,2.758-3.069C129.5,157.668,128.517,159,128.517,160.737ZM99.345,165.7l-1.165-2.225c3.366-1.33,6.225-3.555,6.225-6.8V155.6a2.334,2.334,0,0,0-.531-1.841c-.3-.383-.1-.741.253-.741H108.5v3.4c0,3.351,3.239,5.32,6.174,6.317l-1.088,2.072c-.328.613-1.569.383-3.745-.972a11.719,11.719,0,0,1-3.214-2.865,12.761,12.761,0,0,1-3.442,3.376,8.674,8.674,0,0,1-3.4,1.561A.451.451,0,0,1,99.345,165.7Zm106.817-.179c-2.91,0-4.2-1-4.2-3.632V155.75a2.429,2.429,0,0,0-.633-1.893c-.3-.383-.151-.742.228-.742h18.726V155.9H206.06V157.9h14.146v2.788H206.06v1.048c0,.742.254.971,1.038.971h13.514v2.813Z" transform="translate(-59 -148.001)" fill="#fff"/>
</svg>
